<svg xmlns="http://www.w3.org/2000/svg" xmlns:xlink="http://www.w3.org/1999/xlink" width="56" height="49" viewBox="0 0 56 49">
    <defs>
        <path id="9qd484voba" d="M27.999 0c2.565 0 4.943 1.335 6.28 3.532l20.738 34.5c1.303 2.25 1.311 5.02.02 7.277-1.291 2.257-3.687 3.662-6.321 3.691H7.255c-2.607-.029-5.003-1.434-6.295-3.691-1.29-2.257-1.283-5.028.04-7.311L21.719 3.532C23.055 1.335 25.434 0 27.998 0zm0 4.875c-.853 0-1.645.443-2.089 1.169L5.217 40.469c-.434.75-.437 1.673-.007 2.426.43.752 1.23 1.22 2.072 1.23h41.407c.87-.01 1.668-.478 2.098-1.23.43-.753.428-1.676.013-2.392L30.09 6.048C29.647 5.32 28.854 4.875 28 4.875zm-1.73 27.777c.955-.952 2.504-.952 3.46 0 .955.951.955 2.495 0 3.447-.956.952-2.505.952-3.46 0-.955-.952-.955-2.496 0-3.447zM28 14.875c1.35 0 2.446 1.092 2.446 2.438v9.75c0 1.346-1.095 2.437-2.446 2.437-1.351 0-2.446-1.091-2.446-2.437v-9.75c0-1.346 1.095-2.438 2.446-2.438z"/>
    </defs>
    <g fill="none" fill-rule="evenodd">
        <g>
            <g>
                <g>
                    <g transform="translate(-859 -396) translate(495 256) translate(40 92) translate(324 48)">
                        <use fill="#EF3D62" fill-rule="nonzero" xlink:href="#9qd484voba"/>
                    </g>
                </g>
            </g>
        </g>
    </g>
</svg>
