<svg xmlns="http://www.w3.org/2000/svg" xmlns:xlink="http://www.w3.org/1999/xlink" width="56" height="56" viewBox="0 0 56 56">
    <defs>
        <path id="vgxxt5kega" d="M38.538 0c.675 0 1.323.268 1.8.746l14.916 14.916c.478.477.746 1.125.746 1.8v21.076c0 .675-.268 1.323-.746 1.8L40.338 55.254c-.477.478-1.125.746-1.8.746H17.462c-.675 0-1.323-.268-1.8-.746L.746 40.338C.268 39.861 0 39.213 0 38.538V17.462c0-.675.268-1.323.746-1.8L15.662.746C16.139.268 16.787 0 17.462 0h21.076zm-1.054 5.09H18.516L5.091 18.517v18.968l13.425 13.425h18.968l13.425-13.425V18.516L37.484 5.091zM26.2 33.837c.994-.994 2.606-.994 3.6 0 .994.995.994 2.606 0 3.6-.994.994-2.606.994-3.6 0-.994-.994-.994-2.605 0-3.6zM28 15.273c1.406 0 2.545 1.14 2.545 2.545V28c0 1.406-1.14 2.545-2.545 2.545-1.406 0-2.545-1.14-2.545-2.545V17.818c0-1.406 1.14-2.545 2.545-2.545z"/>
    </defs>
    <g fill="none" fill-rule="evenodd">
        <g>
            <g>
                <g>
                    <g transform="translate(-858 -490) translate(494 200) translate(40 214) translate(324 76)">
                        <use fill="#E28156" xlink:href="#vgxxt5kega"/>
                    </g>
                </g>
            </g>
        </g>
    </g>
</svg>
