<svg xmlns="http://www.w3.org/2000/svg" xmlns:xlink="http://www.w3.org/1999/xlink" width="18" height="17" viewBox="0 0 18 17">
    <defs>
        <path id="63vjfeg7za" d="M2.065 2.978C4.542.116 8.63-.796 12.112.736c.395.174.573.63.397 1.02-.176.39-.639.566-1.034.392C8.626.894 5.281 1.64 3.255 3.982c-2.027 2.34-2.253 5.72-.555 8.303 1.698 2.583 4.914 3.757 7.906 2.884 2.991-.874 5.044-3.585 5.046-6.665v-.718c0-.427.35-.773.783-.773.432 0 .782.346.782.773v.719c-.002 3.764-2.511 7.078-6.167 8.146-3.656 1.067-7.588-.367-9.663-3.525s-1.8-7.287.678-10.148zm14.599-1.974c.306-.302.801-.302 1.107 0 .305.302.305.79 0 1.093l-8.609 8.499c-.306.302-.801.302-1.107 0L5.708 8.278c-.306-.302-.306-.791 0-1.093.305-.301.8-.301 1.106 0L8.61 8.957z"/>
    </defs>
    <g fill="none" fill-rule="evenodd">
        <g>
            <g>
                <g>
                    <g transform="translate(-869 -2393) translate(869 2294) translate(0 96) translate(0 3)">
                        <use fill="#41DEA2" fill-rule="nonzero" xlink:href="#63vjfeg7za"/>
                    </g>
                </g>
            </g>
        </g>
    </g>
</svg>
