<svg xmlns="http://www.w3.org/2000/svg" width="93" height="27" viewBox="0 0 93 27">
    <g fill="none" fill-rule="evenodd" stroke-linecap="round">
        <g stroke="#41DEA2" stroke-width="2">
            <g>
                <g>
                    <path d="M1013 30l4.047-9.01c1.01-2.247 3.65-3.25 5.896-2.241l.1.046c2.519 1.207 5.507.861 7.685-.888l2.594-2.083c2.129-1.71 4.967-2.255 7.577-1.454 2.399.735 4.974-.397 6.054-2.66l1.854-3.885c.935-1.96 3.283-2.791 5.243-1.856.86.41 1.542 1.12 1.919 1.994l4.444 10.324c.73 1.695 2.696 2.478 4.392 1.748.475-.204.897-.516 1.23-.911l1-1.18c1.423-1.684 3.875-2.049 5.727-.853 1.784 1.151 4.163.639 5.314-1.144l.006-.01 1.78-2.773c.918-1.432 2.746-1.978 4.299-1.283 1.608.72 3.496.311 4.663-1.008l2.067-2.336c1.587-1.793 4.327-1.96 6.12-.374.36.319.665.695.901 1.113l5.601 9.906h0" transform="translate(-1174 -615) translate(128 539) translate(34 72)"/>
                </g>
            </g>
        </g>
    </g>
</svg>
