<svg xmlns="http://www.w3.org/2000/svg" width="20" height="20" viewBox="0 0 20 20">
    <g fill="none" fill-rule="evenodd">
        <g fill="#41DEA2" fill-rule="nonzero">
            <g>
                <g>
                    <g>
                        <path d="M847 17c-5.538 0-10 4.462-10 10s4.462 10 10 10 10-4.462 10-10-4.462-10-10-10zm5 8.077l-5.308 5.308c-.154.153-.384.23-.615.23-.23 0-.462-.077-.615-.23l-3.308-3.308c-.308-.308-.308-.923 0-1.23.308-.309.923-.309 1.23 0l2.693 2.691 4.692-4.692c.308-.308.923-.308 1.231 0 .385.308.385.923 0 1.23z" transform="translate(-969 -1113) translate(132 1043) translate(0 52) translate(0 1)"/>
                    </g>
                </g>
            </g>
        </g>
    </g>
</svg>
