<svg xmlns="http://www.w3.org/2000/svg" width="29" height="29" viewBox="0 0 29 29">
    <g fill="none" fill-rule="evenodd">
        <g>
            <g>
                <g transform="translate(-726 -375) translate(495 200) rotate(90 41.5 217.5)">
                    <circle cx="13.5" cy="13.5" r="13.5" fill="#F5F5F8" stroke="#253165"/>
                    <path fill="#253165" fill-rule="nonzero" d="M8.611 14.125h7.948l-.978.75c-.27.207-.325.599-.123.875.116.157.297.25.49.25.132 0 .26-.044.366-.125L18.76 14c.151-.118.24-.302.24-.496 0-.195-.089-.38-.24-.497l-2.36-1.875c-.267-.212-.652-.163-.86.11-.207.272-.159.665.108.877l.96.756H8.61c-.337 0-.611.28-.611.625s.274.625.611.625z"/>
                </g>
            </g>
        </g>
    </g>
</svg>
