<svg xmlns="http://www.w3.org/2000/svg" width="13" height="22" viewBox="0 0 13 22">
    <g fill="none" fill-rule="evenodd">
        <g fill="#2DC490" fill-rule="nonzero">
            <g>
                <g>
                    <g>
                        <g>
                            <g>
                                <path d="M7.985 0v2.182l.166.022c1.03.138 1.863.419 2.512.845.572.377 1.122.934 1.651 1.667l.117.16-2.276 1.063-.097-.13c-.8-1.075-1.827-1.614-3.07-1.614-.837 0-1.537.21-2.09.627-.565.426-.85.962-.85 1.598 0 .58.234 1.07.695 1.455.374.313 1.064.669 2.095 1.079l.788.304c.945.369 1.726.712 2.35 1.032.693.358 1.212.7 1.552 1.022.984.887 1.472 1.949 1.472 3.202 0 1.233-.443 2.32-1.328 3.262-.877.94-2.054 1.571-3.532 1.901l-.148.033V22H6.026v-2.237l-.165-.023c-1.718-.236-3.028-.728-3.921-1.475-.827-.692-1.454-1.736-1.884-3.131L0 14.952l2.588-.452.055.143c.396 1.02.87 1.76 1.42 2.22.655.5 1.51.75 2.576.75 1.036 0 1.905-.281 2.605-.842.696-.56 1.048-1.288 1.048-2.168 0-.791-.296-1.433-.88-1.914-.288-.227-.703-.477-1.27-.764-.58-.288-1.177-.549-1.787-.783l-.577-.222c-1.56-.604-2.6-1.159-3.094-1.652-.843-.792-1.261-1.729-1.261-2.825 0-.518.098-1 .296-1.448.203-.446.494-.857.858-1.211.372-.358.837-.675 1.389-.948.548-.266 1.183-.477 1.903-.635l.148-.033V0h1.968z" transform="translate(-332 -3777) translate(226 3299) translate(0 181) translate(0 281) translate(86) translate(20 16)"/>
                            </g>
                        </g>
                    </g>
                </g>
            </g>
        </g>
    </g>
</svg>
