<svg xmlns="http://www.w3.org/2000/svg" width="17" height="17" viewBox="0 0 17 17">
    <g fill="none" fill-rule="evenodd">
        <g fill-rule="nonzero">
            <g>
                <g>
                    <g transform="translate(-859 -24) translate(760 17) translate(99 6) translate(0 1)">
                        <path fill="#41DEA2" d="M8.5 0C3.806 0 0 3.806 0 8.5S3.806 17 8.5 17 17 13.194 17 8.5c0-2.254-.896-4.416-2.49-6.01C12.916.896 10.754 0 8.5 0zm0 15.3c-3.756 0-6.8-3.044-6.8-6.8s3.044-6.8 6.8-6.8 6.8 3.044 6.8 6.8c0 1.803-.716 3.533-1.992 4.808C12.033 14.584 10.303 15.3 8.5 15.3zm3.502-10.506c-.12-.122-.301-.16-.459-.093l-4.19 1.7c-.42.172-.754.506-.927.926l-1.7 4.19c-.066.158-.029.34.093.46l.205.204c.119.122.3.159.458.093l4.191-1.7c.42-.173.754-.506.927-.926l1.7-4.191c.065-.158.028-.34-.094-.459l-.204-.204z"/>
                        <circle cx="8.8" cy="8.2" r="1" fill="#ECF0F3"/>
                    </g>
                </g>
            </g>
        </g>
    </g>
</svg>
