<svg xmlns="http://www.w3.org/2000/svg" width="19" height="17" viewBox="0 0 19 17">
    <g fill="none" fill-rule="evenodd">
        <g fill="#41DEA2" fill-rule="nonzero" stroke="#41DEA2" stroke-width=".3">
            <g>
                <g>
                    <g>
                        <path d="M8.504 1.526C7.87.717 6.314 0 4.585 0 2.297 0 .453 1.206 0 2.336v11.779c0 .64.412.885.856.885.363 0 .568-.11.79-.287.47-.413 1.417-.97 2.94-.97 1.514 0 2.576.54 2.988.92.214.177.477.337.93.337.445 0 .7-.177.922-.337.437-.354 1.474-.92 2.989-.92 1.522 0 2.477.566 2.939.97.222.177.428.287.79.287.445 0 .856-.245.856-.885V2.335C16.547 1.206 14.703 0 12.415 0c-1.73 0-3.285.717-3.91 1.526zM1.325 2.741c.19-.524 1.384-1.468 3.26-1.468 1.869 0 3.088.953 3.252 1.468v10.665c-.782-.598-1.976-.936-3.252-.936-1.284 0-2.477.338-3.26.97V2.74zm14.35 0v10.7c-.783-.633-1.976-.97-3.26-.97-1.276 0-2.47.337-3.252.935V2.741c.164-.515 1.383-1.468 3.252-1.468 1.876 0 3.07.944 3.26 1.468h0z" transform="translate(-1140 -24) translate(760 17) translate(381 6) translate(0 2)"/>
                    </g>
                </g>
            </g>
        </g>
    </g>
</svg>
