<svg xmlns="http://www.w3.org/2000/svg" width="17" height="17" viewBox="0 0 17 17">
    <g fill="none" fill-rule="evenodd">
        <g fill="#41DEA2" fill-rule="nonzero" stroke="#41DEA2" stroke-width=".4">
            <g>
                <g>
                    <path d="M8.767 9.643c-.832.001-1.63-.339-2.219-.945-.161-.172-.159-.445.005-.614.165-.17.43-.172.598-.005.893.917 2.338.917 3.231 0L13.48 4.89c.892-.917.892-2.408 0-3.326-.89-.917-2.34-.917-3.231 0l-2.614 2.69c-.168.167-.433.164-.598-.005-.164-.169-.166-.442-.005-.614L9.646.945c1.224-1.26 3.214-1.26 4.437 0 1.222 1.259 1.223 3.307 0 4.565l-3.098 3.188c-.588.606-1.387.946-2.219.945h0z" transform="translate(-235.000000, -34.000000) translate(226.000000, 25.000000) translate(10.000000, 10.000000)"/>
                    <path d="M3.136 15c-.832.001-1.63-.338-2.218-.944-1.224-1.262-1.224-3.305 0-4.566l3.098-3.188c1.225-1.26 3.21-1.26 4.436 0 .161.172.159.445-.005.614-.165.17-.43.172-.598.006-.892-.917-2.338-.917-3.231 0L1.52 10.11c-.891.917-.891 2.409 0 3.326.891.917 2.34.917 3.232 0l2.614-2.69c.167-.167.432-.164.597.005.164.169.166.442.005.614l-2.614 2.69c-.588.607-1.386.946-2.219.945h.001z" transform="translate(-235.000000, -34.000000) translate(226.000000, 25.000000) translate(10.000000, 10.000000)"/>
                </g>
            </g>
        </g>
    </g>
</svg>
