<svg xmlns="http://www.w3.org/2000/svg" width="16" height="14" viewBox="0 0 16 14">
    <g fill="none" fill-rule="evenodd">
        <g fill="#EBEDF3" fill-rule="nonzero" stroke="#41DEA2">
            <g>
                <path d="M23.5 13.442c.634-.37 1.088-.97 1.315-1.662-.59.37-1.225.6-1.905.738-.544-.6-1.315-.969-2.131-.969-1.633 0-2.993 1.339-2.993 3.046 0 .231.045.462.09.693-2.494-.139-4.67-1.339-6.167-3.185-.272.462-.408.97-.408 1.523 0 1.062.544 1.985 1.315 2.539-.499 0-.952-.139-1.36-.37v.047c0 1.476 1.043 2.676 2.403 2.953-.272.047-.499.093-.77.093-.182 0-.364 0-.545-.046.363 1.2 1.497 2.076 2.766 2.123-.997.83-2.312 1.292-3.718 1.292-.227 0-.499 0-.726-.046 1.36.83 2.948 1.338 4.626 1.338 5.487 0 8.48-4.615 8.48-8.63v-.37c.544-.461 1.043-.969 1.45-1.569-.544.23-1.088.415-1.723.462z" transform="translate(-69.000000, -36.000000) translate(59.000000, 25.000000)"/>
            </g>
        </g>
    </g>
</svg>
