<svg xmlns="http://www.w3.org/2000/svg" width="18" height="15" viewBox="0 0 18 15">
    <g fill="none" fill-rule="evenodd">
        <g fill="#EAECF2" fill-rule="nonzero" stroke="#41DEA2">
            <g>
                <g>
                    <path d="M.98 5.662s7.077-2.854 9.532-3.86c.94-.401 4.13-1.687 4.13-1.687s1.473-.563 1.35.804c-.04.562-.367 2.532-.695 4.662-.49 3.015-1.022 6.31-1.022 6.31s-.082.925-.777 1.086c-.696.16-1.841-.563-2.046-.724-.163-.12-3.067-1.929-4.13-2.813-.287-.241-.615-.724.04-1.286 1.473-1.327 3.231-2.975 4.295-4.02.49-.482.982-1.608-1.064-.241-2.904 1.97-5.767 3.818-5.767 3.818s-.655.402-1.882.04C1.717 7.39.286 6.909.286 6.909s-.982-.603.695-1.246z" transform="translate(-150.000000, -35.000000) translate(142.312500, 25.000000) translate(8.687500, 11.000000)"/>
                </g>
            </g>
        </g>
    </g>
</svg>
