<svg xmlns="http://www.w3.org/2000/svg" width="39" height="22" viewBox="0 0 39 22">
    <g fill="none" fill-rule="evenodd" opacity=".8">
        <g fill="#FFF" fill-rule="nonzero">
            <g>
                <g>
                    <g>
                        <path d="M10.79 0c5.96 0 10.791 4.925 10.791 11s-4.83 11-10.79 11C4.83 22 0 17.075 0 11S4.831 0 10.79 0zm17.233.644C31.003.644 33.42 5.28 33.42 11c0 5.719-2.416 10.356-5.395 10.356-2.98 0-5.396-4.637-5.396-10.356 0-5.718 2.415-10.356 5.395-10.356zm8.34 1.079c1.048 0 1.898 4.153 1.898 9.277 0 5.122-.85 9.277-1.898 9.277S34.466 16.124 34.466 11c0-5.123.85-9.277 1.897-9.277z" transform="translate(-1203 -4776) translate(0 4754) translate(80 22) translate(1123)"/>
                    </g>
                </g>
            </g>
        </g>
    </g>
</svg>
