<svg xmlns="http://www.w3.org/2000/svg" width="175" height="149" viewBox="0 0 175 149">
    <defs>
        <linearGradient id="qkcs9nedda" x1="66.025%" x2="37.983%" y1="75.81%" y2="33.62%">
            <stop offset="0%" stop-color="#B5FFC9"/>
            <stop offset="100%" stop-color="#6CCB9A"/>
        </linearGradient>
        <linearGradient id="jqqtdg479b" x1="188.526%" x2="-53.686%" y1="-55.871%" y2="111.528%">
            <stop offset="0%" stop-color="#6B6DFF"/>
            <stop offset="100%" stop-color="#3038D2"/>
        </linearGradient>
        <linearGradient id="86d538q1zc" x1="8.072%" x2="143.886%" y1="50.373%" y2="49.131%">
            <stop offset="0%" stop-color="#6B6DFF"/>
            <stop offset="100%" stop-color="#3038D2"/>
        </linearGradient>
        <linearGradient id="335jlrx6cd" x1="39.909%" x2="67.403%" y1="40.587%" y2="93.167%">
            <stop offset="0%" stop-color="#B5FFC9"/>
            <stop offset="100%" stop-color="#6CCB9A"/>
        </linearGradient>
        <linearGradient id="4ahcg5wvze" x1="-102.578%" x2="79.717%" y1="8.044%" y2="52.067%">
            <stop offset="0%" stop-color="#B5FFC9"/>
            <stop offset="100%" stop-color="#6CCB9A"/>
        </linearGradient>
        <linearGradient id="9qh6kanl8f" x1="54.846%" x2="13.534%" y1="48.343%" y2="62.423%">
            <stop offset="0%" stop-color="#B5FFC9"/>
            <stop offset="100%" stop-color="#6CCB9A"/>
        </linearGradient>
        <linearGradient id="pvrhd2bw7g" x1="56.08%" x2="45.776%" y1="-15.906%" y2="95.871%">
            <stop offset="0%" stop-color="#B5FFC9"/>
            <stop offset="100%" stop-color="#6CCB9A"/>
        </linearGradient>
        <linearGradient id="o7haxj1mch" x1="73.306%" x2="20.74%" y1="44.16%" y2="57.743%">
            <stop offset="0%" stop-color="#6B6DFF"/>
            <stop offset="100%" stop-color="#3038D2"/>
        </linearGradient>
        <linearGradient id="45bpohu5ri" x1="-5.878%" x2="62.223%" y1="73.915%" y2="44.804%">
            <stop offset="0%" stop-color="#E8ECF5"/>
            <stop offset="100%" stop-color="#B4B9FF"/>
        </linearGradient>
        <linearGradient id="v9z7ym002j" x1="55.728%" x2="41.651%" y1="16.49%" y2="99.303%">
            <stop offset="0%" stop-color="#6B6DFF"/>
            <stop offset="100%" stop-color="#3038D2"/>
        </linearGradient>
        <linearGradient id="a5yyuy0wlk" x1="46.488%" x2="68.53%" y1="40.403%" y2="80.88%">
            <stop offset="0%" stop-color="#B5FFC9"/>
            <stop offset="100%" stop-color="#6CCB9A"/>
        </linearGradient>
        <linearGradient id="jve4bwf4cl" x1="-20.17%" x2="89.432%" y1="-92.685%" y2="156.021%">
            <stop offset="0%" stop-color="#6B6DFF"/>
            <stop offset="100%" stop-color="#3038D2"/>
        </linearGradient>
        <linearGradient id="bokq31qi6m" x1="92.713%" x2="18.196%" y1="-80.335%" y2="135.244%">
            <stop offset="0%" stop-color="#6B6DFF"/>
            <stop offset="100%" stop-color="#3038D2"/>
        </linearGradient>
    </defs>
    <g fill="none" fill-rule="evenodd">
        <g>
            <g transform="translate(-1200 -4055) matrix(-1 0 0 1 1375 4055)">
                <g fill-rule="nonzero">
                    <path fill="url(#qkcs9nedda)" d="M26.302 44.433c-.122-14.304-4.466-34.084-10.26-42.806C10.247-7.094-1.333 21.13.126 41.476c1.46 20.347 26.289 16.623 26.176 2.957z" transform="translate(99 63)"/>
                    <path fill="url(#jqqtdg479b)" d="M17.484 66.132c.218-.217.401-.464.545-.736.143-.272.244-.564.3-.866.055-.303.064-.612.027-.917-.037-.305-.12-.603-.247-.883-.477-1.064-.617-2.248-.404-3.395.214-1.146.773-2.2 1.6-3.018.828-.819 1.885-1.364 3.03-1.56 1.146-.199 2.324-.04 3.376.455.276.133.572.222.875.265.304.042.612.038.914-.013.302-.052.595-.15.868-.29.272-.14.522-.32.74-.537.346-.345.604-.769.751-1.235.147-.467.18-.963.094-1.444-.085-.483-.286-.936-.585-1.324-.298-.387-.686-.696-1.129-.899-2.164-1.012-4.583-1.336-6.936-.929-2.353.407-4.525 1.527-6.226 3.207-1.702 1.682-2.85 3.845-3.292 6.2-.442 2.354-.157 4.79.816 6.977.197.449.498.843.88 1.148.382.307.832.515 1.31.608.48.092.975.067 1.443-.076.467-.14.893-.395 1.241-.738h.009z" transform="translate(99 63)"/>
                </g>
                <ellipse cx="78.23" cy="137.987" fill="url(#86d538q1zc)" fill-rule="nonzero" rx="10.175" ry="17.414" transform="rotate(-89.69 78.23 137.987)"/>
                <path fill="url(#335jlrx6cd)" fill-rule="nonzero" d="M64.457 105S22.46 102.267 7.273 74.532c-17.8-32.515 1.482-52.007 11.06-57.508 5.86-3.366 9.291 2.399 5.024 5.343C18.41 25.785 1.567 39.53 11.29 66.394 21.013 93.26 65 96.651 65 96.651L64.457 105z"/>
                <g fill-rule="nonzero" transform="translate(41 43)">
                    <path fill="url(#4ahcg5wvze)" d="M36.61 79c-2.993-.018-5.963-.527-8.794-1.508-2.832-.981-5.486-2.42-7.86-4.264-2.373-1.844-4.435-4.065-6.103-6.578-1.668-2.512-2.922-5.283-3.71-8.203L.204 21.672l73.49.407-10.427 36.713c-.823 2.904-2.108 5.654-3.804 8.14-1.694 2.489-3.778 4.682-6.169 6.493-2.39 1.812-5.056 3.22-7.892 4.167-2.837.947-5.807 1.423-8.794 1.407z"/>
                    <ellipse cx="37.001" cy="21.866" fill="url(#9qh6kanl8f)" rx="21.47" ry="36.77" transform="rotate(-89.38 37 21.866)"/>
                </g>
                <g>
                    <path fill="url(#pvrhd2bw7g)" fill-rule="nonzero" d="M80.591 36c0 14.56-8.734 27.687-22.13 33.258-13.396 5.573-28.815 2.493-39.066-7.803-10.253-10.295-13.32-25.78-7.771-39.232C17.172 8.77 30.244 0 44.743 0c4.712-.017 9.382.902 13.738 2.705 4.357 1.803 8.317 4.454 11.649 7.8 3.332 3.347 5.972 7.323 7.767 11.698 1.796 4.375 2.711 9.065 2.694 13.797z" transform="translate(33.011)"/>
                    <path fill="#FFF" fill-rule="nonzero" d="M73.037 36.095c.375-2.526.507-5.083.394-7.635-.114-2.551-.472-5.087-1.07-7.57-.598-2.482-1.432-4.9-2.492-7.223-1.06-2.322-2.34-4.536-3.823-6.611-.744-.548-1.506-1.069-2.285-1.555 1.691 2.074 3.165 4.319 4.4 6.696 1.234 2.378 2.222 4.876 2.95 7.456.726 2.58 1.187 5.228 1.376 7.902.188 2.675.103 5.362-.255 8.019l-22.756 1.32C46.655 22.124 37.43 14.79 30.146 11.219c-.657-.318-1.322-.62-1.993-.905-.672-.285-1.35-.554-2.034-.806-.686-.252-1.376-.486-2.073-.704-.695-.217-1.397-.418-2.103-.6-.286.234-.554.478-.822.712.746.182 1.486.384 2.222.606.735.222 1.465.462 2.186.723.723.26 1.439.54 2.146.838.708.3 1.408.617 2.099.953C36.92 15.51 45.997 22.8 48.662 37.442l.07.391 24.227-1.408.078-.33z" transform="translate(33.011)"/>
                    <g fill-rule="nonzero" transform="translate(33.011) translate(0 24.883)">
                        <path fill="url(#o7haxj1mch)" d="M26.313 24.402c1.592-7.003-1.41-16.674-6.689-21.592-3.461-3.18-6.922-3.589-9.466-1.59-.079.065-.157.132-.232.2-.076.069-.15.14-.222.212-.072.073-.143.147-.211.224-.069.075-.135.153-.2.233L5.96 5.286l.909 3.276c-.102 1.492-.078 2.99.074 4.477.153 1.486.432 2.958.834 4.397.403 1.44.927 2.842 1.568 4.191.641 1.35 1.396 2.642 2.257 3.862l1.22 4.414 5.659.869c.082.019.163.036.246.053.083.016.166.03.249.043.083.013.166.025.249.035.084.01.167.018.25.025 3.176.252 5.841-2.05 6.837-6.526z"/>
                        <ellipse cx="11.192" cy="17.237" fill="url(#45bpohu5ri)" rx="7.582" ry="13.176" transform="rotate(-17.49 11.192 17.237)"/>
                        <ellipse cx="9.978" cy="17.62" fill="url(#v9z7ym002j)" rx="4.683" ry="8.139" transform="rotate(-17.49 9.978 17.62)"/>
                    </g>
                    <g>
                        <path fill="#FFF" fill-rule="nonzero" d="M39.977 1.855c-5.97-4.17-12.006-.587-14.277 3.65-.52.977-1.687 1.368-2.66.781-2.856-1.694-8.827-3.91-16.03-.065-9.345 4.953-9.605 22.027.779 27.436 10.188 5.344 17.392-.912 19.663-5.995.454-1.108 1.817-1.499 2.79-.847 2.207 1.368 6.036 2.867 10.578.977 7.982-3.323 7.269-20.332-.843-25.937z" transform="translate(33.011) translate(32.852 17.817)"/>
                        <path fill="#6CCB9A" d="M14.992 22.579l-1.298 1.238c-.26.26-.584.26-.779 0-.064-.13-.13-.26-.13-.391V21.6l-1.297-.782c-.26-.195-.325-.521-.13-.847.065-.13.195-.196.324-.26l1.558-.783.454-1.76c.065-.325.39-.586.714-.52.13 0 .195.065.324.195l.974 1.368 1.622-.26c.325-.065.584.195.584.521 0 .13-.065.26-.13.391l-.973 1.564.52 1.63c.13.325-.066.716-.325.847-.13.065-.26.065-.39.065l-1.622-.391zM24.467 16.714l4.218-1.304c.52-.13.973.13 1.038.717.065.521-.26 1.108-.778 1.303l-4.219 1.304c-.519.13-.973-.13-1.038-.717-.065-.587.26-1.173.779-1.303z" transform="translate(33.011) translate(32.852 17.817)"/>
                        <g fill="#6CCB9A">
                            <path d="M5.435.716L3.358 5.669c-.194.521-.065 1.108.455 1.303.454.196 1.038-.13 1.233-.652l2.076-4.952C7.317.846 7.187.26 6.668.064 6.214-.13 5.695.13 5.435.716z" transform="translate(33.011) translate(32.852 17.817) translate(34.6 8.834)"/>
                            <path d="M3.553 6.777L.243 3.518c-.324-.326-.324-.977 0-1.434.39-.456.974-.52 1.298-.13l3.31 3.259c.324.325.324.977 0 1.433-.39.456-.974.522-1.298.13z" transform="translate(33.011) translate(32.852 17.817) translate(34.6 8.834)"/>
                        </g>
                    </g>
                </g>
                <g fill-rule="nonzero">
                    <path fill="url(#a5yyuy0wlk)" d="M45.944 2.749c-14.266-1.781-34.533 0-43.98 4.747-9.445 4.747 17.149 20.28 37.6 21.464 20.452 1.185 19.997-24.51 6.38-26.211z" transform="translate(48 76)"/>
                    <path fill="url(#jve4bwf4cl)" d="M66.395 14.585c-.187-.249-.412-.468-.664-.65-.252-.18-.53-.321-.825-.417-.295-.096-.601-.146-.91-.147-.31-.002-.618.044-.913.137-1.122.344-2.322.33-3.437-.039-1.115-.37-2.092-1.077-2.8-2.027-.706-.952-1.11-2.1-1.156-3.29-.046-1.191.268-2.369.9-3.372.172-.266.301-.556.386-.862.085-.305.122-.622.11-.94-.01-.316-.07-.63-.174-.93-.106-.298-.255-.579-.445-.831C56.17.82 55.78.502 55.334.291c-.446-.212-.936-.31-1.428-.288-.491.023-.97.167-1.396.418-.425.252-.784.605-1.046 1.028-1.289 2.065-1.926 4.48-1.828 6.923.1 2.444.93 4.798 2.38 6.749 1.452 1.95 3.455 3.404 5.741 4.166 2.285.762 4.746.797 7.052.099.473-.142.904-.398 1.258-.745.354-.349.62-.778.776-1.253.156-.474.196-.98.118-1.475-.078-.494-.272-.961-.566-1.363v.035z" transform="translate(48 76)"/>
                </g>
                <g fill-rule="nonzero" opacity=".6">
                    <path fill="url(#bokq31qi6m)" d="M62.14 46.642L3.86 80.535C1.727 81.773 0 80.455 0 77.585V41.797c0-2.87 1.743-6.198 3.86-7.444L62.14.469C64.273-.777 66 .548 66 3.409v35.798c-.017 2.862-1.743 6.198-3.86 7.435z" transform="translate(109 41)"/>
                    <path fill="#FFF" d="M29.588 27.321L6.65 40.656c-.576.342-1.046 0-1.046-.79.002-.197.028-.392.076-.582.048-.191.118-.375.208-.55.09-.174.201-.336.33-.485.128-.147.273-.28.432-.394l22.938-13.343c.575-.333 1.046 0 1.046.79-.004.197-.03.393-.078.584-.048.19-.118.376-.208.55-.09.175-.201.339-.33.488-.127.148-.271.282-.43.397zM18.101 41.41L6.65 48.073c-.576.342-1.046 0-1.046-.79.002-.197.028-.391.076-.582.048-.19.118-.375.208-.549.09-.174.201-.337.33-.485.128-.147.273-.28.432-.394L18.1 38.61c.576-.342 1.046 0 1.046.79-.002.197-.028.392-.076.582-.048.19-.118.375-.208.549-.09.175-.201.337-.33.485-.127.148-.273.28-.432.394z" transform="translate(109 41)"/>
                </g>
            </g>
        </g>
    </g>
</svg>
