<?xml version="1.0" encoding="UTF-8" standalone="no"?>
<!-- Created with Keyshape -->
<svg xmlns="http://www.w3.org/2000/svg" id="Layer_1" data-name="Layer 1" viewBox="0 0 650 420">
    <defs>
        <linearGradient id="Gradient-0" x1="488.15" y1="902.07" x2="509.35" y2="578.84" gradientUnits="userSpaceOnUse">
            <stop offset="0" stop-color="#e8ecf5"/>
            <stop offset="1" stop-color="#b4b9ff"/>
        </linearGradient>
        <linearGradient id="Gradient-1" x1="468.78" y1="603.34" x2="630.39" y2="245.66" gradientUnits="userSpaceOnUse">
            <stop offset="0" stop-color="#e8ecf5"/>
            <stop offset="1" stop-color="#b4b9ff"/>
        </linearGradient>
        <linearGradient id="Gradient-2" x1="615.43" y1="272.92" x2="470.37" y2="606.76" gradientUnits="userSpaceOnUse">
            <stop offset="0" stop-color="#6b6dff"/>
            <stop offset="1" stop-color="#b4b9ff"/>
        </linearGradient>
        <linearGradient id="Gradient-3" x1="566.51" y1="387.75" x2="419.03" y2="720.08" gradientUnits="userSpaceOnUse">
            <stop offset="0" stop-color="#6b6dff"/>
            <stop offset="1" stop-color="#b4b9ff"/>
        </linearGradient>
        <linearGradient id="Gradient-4" x1="459.14" y1="655.09" x2="257.45" y2="451.41" gradientUnits="userSpaceOnUse">
            <stop offset="0" stop-color="#6b6dff"/>
            <stop offset="1" stop-color="#b4b9ff"/>
        </linearGradient>
        <linearGradient id="Gradient-5" x1="689.97" y1="678.11" x2="645.26" y2="488.34" gradientUnits="userSpaceOnUse">
            <stop offset="0" stop-color="#6b6dff"/>
            <stop offset="1" stop-color="#b4b9ff"/>
        </linearGradient>
        <linearGradient id="Gradient-6" x1="707.1" y1="674.08" x2="662.39" y2="484.31" gradientUnits="userSpaceOnUse">
            <stop offset="0" stop-color="#6b6dff"/>
            <stop offset="1" stop-color="#b4b9ff"/>
        </linearGradient>
        <linearGradient id="Gradient-7" x1="724.23" y1="670.04" x2="679.52" y2="480.27" gradientUnits="userSpaceOnUse">
            <stop offset="0" stop-color="#6b6dff"/>
            <stop offset="1" stop-color="#b4b9ff"/>
        </linearGradient>
        <linearGradient id="Gradient-8" x1="741.36" y1="666" x2="696.65" y2="476.24" gradientUnits="userSpaceOnUse">
            <stop offset="0" stop-color="#6b6dff"/>
            <stop offset="1" stop-color="#b4b9ff"/>
        </linearGradient>
        <linearGradient id="Gradient-9" x1="758.49" y1="661.97" x2="713.79" y2="472.2" gradientUnits="userSpaceOnUse">
            <stop offset="0" stop-color="#6b6dff"/>
            <stop offset="1" stop-color="#b4b9ff"/>
        </linearGradient>
        <linearGradient id="Gradient-10" x1="775.63" y1="657.93" x2="730.92" y2="468.16" gradientUnits="userSpaceOnUse">
            <stop offset="0" stop-color="#6b6dff"/>
            <stop offset="1" stop-color="#b4b9ff"/>
        </linearGradient>
        <linearGradient id="Gradient-11" x1="557.68" y1="467.18" x2="586.75" y2="431.35" gradientUnits="userSpaceOnUse">
            <stop offset="0" stop-color="#6b6dff"/>
            <stop offset="1" stop-color="#b4b9ff"/>
        </linearGradient>
        <linearGradient id="Gradient-12" x1="590.34" y1="448.41" x2="619.41" y2="412.58" gradientUnits="userSpaceOnUse">
            <stop offset="0" stop-color="#6b6dff"/>
            <stop offset="1" stop-color="#b4b9ff"/>
        </linearGradient>
        <linearGradient id="Gradient-13" x1="556.17" y1="534.88" x2="749.06" y2="534.88" gradientUnits="userSpaceOnUse">
            <stop offset="0" stop-color="#243594"/>
            <stop offset="1" stop-color="#6e79e3"/>
        </linearGradient>
        <linearGradient id="Gradient-14" x1="649.41" y1="504.1" x2="665.11" y2="602.39" gradientUnits="userSpaceOnUse">
            <stop offset="0" stop-color="#6b6dff"/>
            <stop offset="1" stop-color="#3038d2"/>
        </linearGradient>
        <linearGradient id="Gradient-15" x1="668.91" y1="500.86" x2="705.23" y2="456.09" gradientUnits="userSpaceOnUse">
            <stop offset="0" stop-color="#e8ecf5"/>
            <stop offset="1" stop-color="#b4b9ff"/>
        </linearGradient>
        <linearGradient id="Gradient-16" x1="609.131" y1="453.091" x2="647.519" y2="433.681" gradientUnits="userSpaceOnUse">
            <stop offset="0" stop-color="#6b6dff"/>
            <stop offset="1" stop-color="#3038d2"/>
        </linearGradient>
        <linearGradient id="Gradient-17" x1="670.795" y1="480.99" x2="670.795" y2="509.83" gradientUnits="userSpaceOnUse">
            <stop offset="0" stop-color="#6b6dff"/>
            <stop offset="1" stop-color="#3038d2"/>
        </linearGradient>
        <linearGradient id="Gradient-18" x1="690.885" y1="421.16" x2="690.885" y2="502.25" gradientUnits="userSpaceOnUse">
            <stop offset="0" stop-color="#6b6dff"/>
            <stop offset="1" stop-color="#3038d2"/>
        </linearGradient>
        <linearGradient id="Gradient-19" x1="87.1955" y1="-147.55" x2="108.7" y2="-121.082" gradientUnits="userSpaceOnUse" gradientTransform="matrix(0.9462 0.3237 -0.3237 0.9462 -85.2428 101.948)">
            <stop offset="0" stop-color="#e8ecf5"/>
            <stop offset="1" stop-color="#b4b9ff"/>
        </linearGradient>
        <linearGradient id="Gradient-20" x1="109.953" y1="-124.501" x2="84.3131" y2="-101.342" gradientUnits="userSpaceOnUse" gradientTransform="matrix(0.9462 0.3237 -0.3237 0.9462 -85.2428 101.948)">
            <stop offset="0" stop-color="#e8ecf5"/>
            <stop offset="1" stop-color="#b4b9ff"/>
        </linearGradient>
        <linearGradient id="Gradient-21" x1="-34.6973" y1="-634.631" x2="-10.5396" y2="-634.631" gradientUnits="userSpaceOnUse" gradientTransform="matrix(0.4401 0.8979 -0.8979 0.4401 -506.226 328.048)">
            <stop offset="0" stop-color="#e8ecf5"/>
            <stop offset="1" stop-color="#b4b9ff"/>
        </linearGradient>
        <linearGradient id="Gradient-22" x1="109.364" y1="-97.6326" x2="91.7192" y2="-95.6108" gradientUnits="userSpaceOnUse" gradientTransform="matrix(0.9462 0.3237 -0.3237 0.9462 -85.2428 101.948)">
            <stop offset="0" stop-color="#e8ecf5"/>
            <stop offset="1" stop-color="#b4b9ff"/>
        </linearGradient>
        <linearGradient id="Gradient-23" x1="93.6897" y1="-117.147" x2="109.864" y2="-102.259" gradientUnits="userSpaceOnUse" gradientTransform="matrix(0.9462 0.3237 -0.3237 0.9462 -85.2428 101.948)">
            <stop offset="0" stop-color="#e8ecf5"/>
            <stop offset="1" stop-color="#b4b9ff"/>
        </linearGradient>
        <linearGradient id="Gradient-24" x1="-175.642" y1="229.043" x2="-145.144" y2="266.58" gradientUnits="userSpaceOnUse" gradientTransform="matrix(0.9043 -0.4269 0.4269 0.9043 36.782 -270.651)">
            <stop offset="0" stop-color="#e8ecf5"/>
            <stop offset="1" stop-color="#b4b9ff"/>
        </linearGradient>
        <linearGradient id="Gradient-25" x1="21.845" y1="4.45412" x2="22.3661" y2="47.7013" gradientUnits="userSpaceOnUse">
            <stop offset="0" stop-color="#e8ecf5"/>
            <stop offset="1" stop-color="#b4b9ff"/>
        </linearGradient>
        <linearGradient id="Gradient-26" x1="100.162" y1="4.97924" x2="38.0345" y2="47.1914" gradientUnits="userSpaceOnUse">
            <stop offset="0" stop-color="#e8ecf5"/>
            <stop offset="1" stop-color="#b4b9ff"/>
        </linearGradient>
        <linearGradient id="Gradient-27" x1="-144.202" y1="299.837" x2="-169.226" y2="302.704" gradientUnits="userSpaceOnUse" gradientTransform="matrix(0.9043 -0.4269 0.4269 0.9043 36.782 -270.651)">
            <stop offset="0" stop-color="#e8ecf5"/>
            <stop offset="1" stop-color="#b4b9ff"/>
        </linearGradient>
        <linearGradient id="Gradient-28" x1="-166.432" y1="272.161" x2="-143.493" y2="293.275" gradientUnits="userSpaceOnUse" gradientTransform="matrix(0.9043 -0.4269 0.4269 0.9043 36.782 -270.651)">
            <stop offset="0" stop-color="#e8ecf5"/>
            <stop offset="1" stop-color="#b4b9ff"/>
        </linearGradient>
        <linearGradient id="Gradient-29" x1="105.349" y1="-289.127" x2="131.791" y2="-256.582" gradientUnits="userSpaceOnUse" gradientTransform="matrix(0.8655 0.501 -0.501 0.8655 -160.326 211.885)">
            <stop offset="0" stop-color="#e8ecf5"/>
            <stop offset="1" stop-color="#b4b9ff"/>
        </linearGradient>
        <linearGradient id="Gradient-30" x1="133.332" y1="-260.786" x2="101.804" y2="-232.309" gradientUnits="userSpaceOnUse" gradientTransform="matrix(0.8655 0.501 -0.501 0.8655 -160.326 211.885)">
            <stop offset="0" stop-color="#e8ecf5"/>
            <stop offset="1" stop-color="#b4b9ff"/>
        </linearGradient>
        <linearGradient id="Gradient-31" x1="-116.069" y1="-745.537" x2="-86.364" y2="-745.537" gradientUnits="userSpaceOnUse" gradientTransform="matrix(0.2578 0.9662 -0.9662 0.2578 -617.15 352.096)">
            <stop offset="0" stop-color="#e8ecf5"/>
            <stop offset="1" stop-color="#b4b9ff"/>
        </linearGradient>
        <linearGradient id="Gradient-32" x1="132.608" y1="-227.748" x2="110.911" y2="-225.262" gradientUnits="userSpaceOnUse" gradientTransform="matrix(0.8655 0.501 -0.501 0.8655 -160.326 211.885)">
            <stop offset="0" stop-color="#e8ecf5"/>
            <stop offset="1" stop-color="#b4b9ff"/>
        </linearGradient>
        <linearGradient id="Gradient-33" x1="113.334" y1="-251.743" x2="133.223" y2="-233.437" gradientUnits="userSpaceOnUse" gradientTransform="matrix(0.8655 0.501 -0.501 0.8655 -160.326 211.885)">
            <stop offset="0" stop-color="#e8ecf5"/>
            <stop offset="1" stop-color="#b4b9ff"/>
        </linearGradient>
        <linearGradient id="Gradient-34" x1="51.0547" y1="50.8614" x2="27.9668" y2="54.8032" gradientUnits="userSpaceOnUse">
            <stop offset="0" stop-color="#e8ecf5"/>
            <stop offset="1" stop-color="#b4b9ff"/>
        </linearGradient>
        <linearGradient id="Gradient-35" x1="41.6637" y1="55.012" x2="4.4979" y2="51.9149" gradientUnits="userSpaceOnUse">
            <stop offset="0" stop-color="#e8ecf5"/>
            <stop offset="1" stop-color="#b4b9ff"/>
        </linearGradient>
        <linearGradient id="Gradient-36" x1="79.1284" y1="-424.186" x2="108.834" y2="-424.186" gradientUnits="userSpaceOnUse" gradientTransform="matrix(0.7102 0.704 -0.704 0.7102 -333.709 298.903)">
            <stop offset="0" stop-color="#e8ecf5"/>
            <stop offset="1" stop-color="#b4b9ff"/>
        </linearGradient>
        <linearGradient id="Gradient-37" x1="43.4039" y1="137.507" x2="21.7072" y2="139.993" gradientUnits="userSpaceOnUse" gradientTransform="matrix(1 -0.00431628 0.00431628 1 -10.0943 -52.6951)">
            <stop offset="0" stop-color="#e8ecf5"/>
            <stop offset="1" stop-color="#b4b9ff"/>
        </linearGradient>
        <linearGradient id="Gradient-38" x1="24.1303" y1="113.511" x2="44.019" y2="131.818" gradientUnits="userSpaceOnUse" gradientTransform="matrix(1 -0.00431628 0.00431628 1 -10.0943 -52.6951)">
            <stop offset="0" stop-color="#e8ecf5"/>
            <stop offset="1" stop-color="#b4b9ff"/>
        </linearGradient>
        <linearGradient id="Gradient-39" x1="605.98" y1="559.35" x2="634.65" y2="480.17" gradientUnits="userSpaceOnUse">
            <stop offset="0" stop-color="#e8ecf5"/>
            <stop offset="1" stop-color="#b4b9ff"/>
        </linearGradient>
        <linearGradient id="Gradient-40" x1="674.77" y1="567.69" x2="726.16" y2="469.76" gradientUnits="userSpaceOnUse">
            <stop offset="0" stop-color="#e8ecf5"/>
            <stop offset="1" stop-color="#b4b9ff"/>
        </linearGradient>
        <linearGradient id="Gradient-41" x1="631.65" y1="516.19" x2="656.22" y2="430.74" gradientUnits="userSpaceOnUse">
            <stop offset="0" stop-color="#6b6dff"/>
            <stop offset="1" stop-color="#3038d2"/>
        </linearGradient>
        <linearGradient id="Gradient-42" x1="701.76" y1="506.77" x2="704.55" y2="454.8" gradientUnits="userSpaceOnUse">
            <stop offset="0" stop-color="#6b6dff"/>
            <stop offset="1" stop-color="#3038d2"/>
        </linearGradient>
        <linearGradient id="Gradient-43" x1="-8.45056" y1="-4.50629" x2="-44.9406" y2="-132.856" gradientUnits="userSpaceOnUse" gradientTransform="matrix(1 0.01 -0.01 1 3.08 -2.93)">
            <stop offset="0" stop-color="#6b6dff"/>
            <stop offset="1" stop-color="#b4b9ff"/>
        </linearGradient>
        <linearGradient id="Gradient-44" x1="-164.73" y1="514.83" x2="-181.11" y2="555.16" gradientUnits="userSpaceOnUse" gradientTransform="matrix(-0.89 0.46 0.46 0.89 118.24 126.59)">
            <stop offset="0" stop-color="#b5ffc9"/>
            <stop offset="1" stop-color="#6ccb9a"/>
        </linearGradient>
        <linearGradient id="Gradient-45" x1="-140.14" y1="507.42" x2="-148.83" y2="556.91" gradientUnits="userSpaceOnUse" gradientTransform="matrix(-0.89 0.46 0.46 0.89 118.24 126.59)">
            <stop offset="0" stop-color="#6b6dff"/>
            <stop offset="1" stop-color="#3038d2"/>
        </linearGradient>
        <linearGradient id="Gradient-46" x1="360.55" y1="486.38" x2="490.5" y2="526.15" gradientUnits="userSpaceOnUse" gradientTransform="matrix(-1 0 0 1 1011.86 0)">
            <stop offset="0" stop-color="#b5ffc9"/>
            <stop offset="1" stop-color="#6ccb9a"/>
        </linearGradient>
        <linearGradient id="Gradient-47" x1="1006.76" y1="-5.80595" x2="1016.54" y2="44.1541" gradientUnits="userSpaceOnUse" gradientTransform="matrix(-1 -0.01 -0.01 1 1005.65 7.92)">
            <stop offset="0" stop-color="#b5ffc9"/>
            <stop offset="1" stop-color="#6ccb9a"/>
        </linearGradient>
        <linearGradient id="Gradient-48" x1="573.8" y1="501.72" x2="594.09" y2="525.79" gradientUnits="userSpaceOnUse">
            <stop offset="0" stop-color="#b5ffc9"/>
            <stop offset="1" stop-color="#6ccb9a"/>
        </linearGradient>
        <linearGradient id="Gradient-49" x1="1322.48" y1="1047.87" x2="1313.78" y2="1097.36" gradientUnits="userSpaceOnUse" gradientTransform="matrix(1 0.04 0.04 -1 -758.3 1515.8)">
            <stop offset="0" stop-color="#6b6dff"/>
            <stop offset="1" stop-color="#3038d2"/>
        </linearGradient>
        <linearGradient id="Gradient-50" x1="531.1" y1="413.1" x2="522.6" y2="504.49" gradientUnits="userSpaceOnUse" gradientTransform="matrix(-1 0 0 1 1069.52 0)">
            <stop offset="0" stop-color="#b5ffc9"/>
            <stop offset="1" stop-color="#6ccb9a"/>
        </linearGradient>
        <linearGradient id="Gradient-51" x1="200.19" y1="355.24" x2="174.3" y2="366.02" gradientUnits="userSpaceOnUse" gradientTransform="matrix(-0.97 0.23 0.23 0.97 670.14 81.47)">
            <stop offset="0" stop-color="#6b6dff"/>
            <stop offset="1" stop-color="#3038d2"/>
        </linearGradient>
        <linearGradient id="Gradient-52" x1="-51.3099" y1="882.358" x2="-38.0999" y2="912.238" gradientUnits="userSpaceOnUse" gradientTransform="matrix(0.290201 0.956966 -0.956966 0.290201 865.75 -212.55)">
            <stop offset="0" stop-color="#e8ecf5"/>
            <stop offset="1" stop-color="#b4b9ff"/>
        </linearGradient>
        <linearGradient id="Gradient-53" x1="887.64" y1="618.157" x2="891.44" y2="633.667" gradientUnits="userSpaceOnUse" gradientTransform="matrix(-0.5 -0.86 -0.86 0.5 983.66 451.36)">
            <stop offset="0" stop-color="#6b6dff"/>
            <stop offset="1" stop-color="#3038d2"/>
        </linearGradient>
        <linearGradient id="Gradient-54" x1="518.46" y1="508.26" x2="490.46" y2="526.82" gradientUnits="userSpaceOnUse">
            <stop offset="0" stop-color="#b5ffc9"/>
            <stop offset="1" stop-color="#6ccb9a"/>
        </linearGradient>
    </defs>
    <style>
@keyframes trolley_t { 0% { transform: translate(-178.598011px,-321.03865px); animation-timing-function: cubic-bezier(0.42,0,0.58,1); } 33.3333% { transform: translate(-340.699011px,-414.08965px); animation-timing-function: cubic-bezier(0.42,0,0.58,1); } 50% { transform: translate(-340.699px,-414.0897px); animation-timing-function: cubic-bezier(0.42,0,0.58,1); } 83.3333% { transform: translate(-178.598011px,-321.03865px); } 100% { transform: translate(-178.598011px,-321.03865px); } }
@keyframes a0_t { 0% { transform: translate(570.074px,516.855px) rotate(80deg) translate(-563.842px,-524.867px); animation-timing-function: cubic-bezier(0.42,0,0.58,1); } 16.6666% { transform: translate(570.074px,516.855px) rotate(0deg) translate(-563.842px,-524.867px); animation-timing-function: cubic-bezier(0.42,0,0.58,1); } 33.3333% { transform: translate(570.074px,516.855px) rotate(80deg) translate(-563.842px,-524.867px); } 100% { transform: translate(570.074px,516.855px) rotate(80deg) translate(-563.842px,-524.867px); } }
@keyframes a1_t { 0% { transform: translate(523.372px,533.327px) rotate(0deg) translate(-523.372px,-533.327px); animation-timing-function: cubic-bezier(0.42,0,0.58,1); } 16.6666% { transform: translate(523.372px,533.327px) rotate(-20deg) translate(-523.372px,-533.327px); animation-timing-function: cubic-bezier(0.42,0,0.58,1); } 33.3333% { transform: translate(523.372px,533.327px) rotate(0deg) translate(-523.372px,-533.327px); animation-timing-function: cubic-bezier(0.42,0,0.58,1); } 50% { transform: translate(523.372px,533.327px) rotate(-20deg) translate(-523.372px,-533.327px); animation-timing-function: cubic-bezier(0.42,0,0.58,1); } 66.6666% { transform: translate(523.372px,533.327px) rotate(0deg) translate(-523.372px,-533.327px); animation-timing-function: cubic-bezier(0.42,0,0.58,1); } 83.3333% { transform: translate(523.372px,533.327px) rotate(-20deg) translate(-523.372px,-533.327px); animation-timing-function: cubic-bezier(0.42,0,0.58,1); } 100% { transform: translate(523.372px,533.327px) rotate(0deg) translate(-523.372px,-533.327px); } }
    </style>
    <g transform="translate(325,210) scale(-1,1) translate(-324.279,-209.404)">
        <g transform="translate(-186.703,-323.25)">
            <path class="cls-19" d="M834.81,604.78L834.81,604.78L814.86,541.42L695.74,521.09L436.63,371.49C426.5,365.64,408.82,366.38,397.13,373.13L267.48,448L223,440.38L189,495.43C188.907,495.558,188.816,495.689,188.727,495.821C188.639,495.952,188.553,496.086,188.469,496.221C188.386,496.356,188.305,496.493,188.227,496.631C188.149,496.769,188.073,496.909,188,497.05L188,497.05L188,497.05C185.18,502.41,186.93,508.05,193.53,511.88L585.23,738.11C595.35,743.96,613.03,743.22,624.72,736.47L825.6,620.47C833.36,616,836.52,610,834.81,604.78Z" fill="url(#Gradient-0)" fill-rule="evenodd"/>
            <path class="cls-20" d="M585.89,662.59L227.1,455.45C217.83,450.09,219,440.75,229.7,434.57L413.7,328.36C424.4,322.18,440.59,321.51,449.86,326.87L808.6,534C817.87,539.35,816.71,548.7,806,554.88L622.06,661.09C611.35,667.27,595.16,667.94,585.89,662.59Z" fill="url(#Gradient-1)" fill-rule="evenodd"/>
            <path class="cls-21" d="M590.77,641.44L263.35,453C255.66,448.56,256.62,440.81,265.5,435.68L418,347.65C426.88,342.52,440.31,341.97,448,346.41L775.42,534.81C783.11,539.25,782.15,547,773.27,552.13L620.76,640.19C611.89,645.32,598.46,645.88,590.77,641.44Z" fill="url(#Gradient-2)" fill-rule="evenodd"/>
            <path class="cls-22" d="M265.5,444L418,355.93C426.88,350.8,440.31,350.25,448,354.68L775.45,543.09C775.838,543.301,776.213,543.534,776.574,543.788C776.935,544.042,777.281,544.316,777.611,544.61C777.94,544.903,778.253,545.215,778.547,545.544C778.841,545.874,779.116,546.219,779.37,546.58C781.9,542.37,780.67,537.83,775.45,534.81L448,346.41C440.31,341.97,426.88,342.52,418,347.65L265.5,435.71C258.65,439.71,256.5,445.19,259.43,449.54C259.81,448.961,260.225,448.407,260.674,447.88C261.123,447.353,261.605,446.854,262.116,446.388C262.627,445.921,263.168,445.487,263.733,445.088C264.299,444.689,264.889,444.325,265.5,444Z" fill="url(#Gradient-3)" fill-rule="evenodd"/>
            <g>
                <path class="cls-23" d="M423.82,634.91L342.33,587.91C341.83,587.582,341.4,587.159,341.064,586.665C340.728,586.171,340.492,585.615,340.372,585.03C340.251,584.445,340.247,583.841,340.36,583.254C340.473,582.667,340.701,582.109,341.03,581.61L360.54,548.26C360.815,547.727,361.192,547.254,361.649,546.865C362.106,546.477,362.634,546.182,363.204,545.997C363.774,545.811,364.375,545.739,364.973,545.784C365.571,545.83,366.154,545.991,366.69,546.26L448.18,593.26C448.68,593.588,449.11,594.011,449.446,594.505C449.782,594.999,450.018,595.555,450.138,596.14C450.259,596.725,450.263,597.329,450.15,597.916C450.037,598.503,449.809,599.061,449.48,599.56L430,632.92C429.724,633.456,429.345,633.932,428.886,634.321C428.426,634.711,427.895,635.007,427.321,635.191C426.747,635.376,426.143,635.446,425.543,635.398C424.942,635.35,424.357,635.184,423.82,634.91Z" fill="url(#Gradient-4)" fill-rule="evenodd"/>
                <path class="cls-24" d="M387,604.74L387,604.74C385.6,603.27,384.445,601.584,383.578,599.748C382.712,597.912,382.145,595.949,381.9,593.934C381.655,591.918,381.734,589.877,382.135,587.887C382.536,585.896,383.254,583.983,384.26,582.22L388.09,575.67C388.255,575.395,388.461,575.147,388.701,574.934C388.94,574.721,389.211,574.545,389.503,574.413C389.795,574.28,390.106,574.193,390.424,574.154C390.742,574.114,391.064,574.123,391.38,574.18L402.38,576C402.582,576.034,402.78,576.085,402.973,576.155C403.165,576.224,403.351,576.31,403.528,576.412C403.706,576.514,403.873,576.632,404.03,576.764C404.186,576.896,404.33,577.042,404.46,577.2L411.52,585.83C411.726,586.074,411.893,586.347,412.016,586.641C412.138,586.936,412.215,587.247,412.244,587.564C412.272,587.882,412.252,588.202,412.183,588.513C412.115,588.825,411.999,589.124,411.84,589.4L408,596C406.945,597.736,405.622,599.294,404.081,600.617C402.54,601.94,400.8,603.012,398.924,603.792C397.049,604.573,395.062,605.052,393.037,605.213C391.013,605.374,388.975,605.215,387,604.74Z" fill-rule="evenodd" fill="#fff"/>
            </g>
            <g>
                <path class="cls-25" d="M692.37,683.23L691.72,683.61C689.41,684.94,686.89,683.76,686.1,680.97L679.1,656.23C678.91,655.546,678.829,654.836,678.858,654.126C678.888,653.416,679.028,652.716,679.274,652.05C679.52,651.383,679.869,650.76,680.308,650.201C680.747,649.643,681.271,649.157,681.86,648.76L682.51,648.38C684.82,647.04,687.34,648.22,688.13,651.02L695.13,675.75C695.319,676.435,695.401,677.146,695.371,677.856C695.341,678.566,695.201,679.268,694.955,679.935C694.709,680.601,694.36,681.226,693.921,681.785C693.482,682.345,692.959,682.832,692.37,683.23Z" fill="url(#Gradient-5)" fill-rule="evenodd"/>
                <path class="cls-26" d="M708.29,674L707.64,674.38C705.32,675.71,702.81,674.53,702.02,671.74L695,647C694.81,646.316,694.727,645.607,694.756,644.897C694.785,644.188,694.925,643.488,695.17,642.821C695.415,642.155,695.763,641.531,696.201,640.973C696.639,640.414,697.162,639.927,697.75,639.53L698.41,639.15C700.72,637.81,703.24,638.99,704.03,641.79L711.03,666.52C711.22,667.204,711.303,667.914,711.275,668.623C711.246,669.333,711.108,670.034,710.863,670.701C710.619,671.368,710.272,671.992,709.836,672.552C709.399,673.112,708.877,673.601,708.29,674Z" fill="url(#Gradient-6)" fill-rule="evenodd"/>
                <path class="cls-27" d="M724.21,664.85L723.56,665.23C721.24,666.56,718.73,665.38,717.93,662.59L710.93,637.85C710.742,637.165,710.662,636.454,710.692,635.744C710.723,635.035,710.864,634.334,711.11,633.667C711.356,633,711.704,632.376,712.142,631.817C712.58,631.257,713.102,630.769,713.69,630.37L714.34,630C716.66,628.66,719.18,629.84,719.97,632.64L726.97,657.37C727.158,658.055,727.238,658.766,727.208,659.476C727.177,660.185,727.036,660.886,726.79,661.553C726.544,662.22,726.196,662.844,725.758,663.403C725.32,663.963,724.798,664.451,724.21,664.85Z" fill="url(#Gradient-7)" fill-rule="evenodd"/>
                <path class="cls-28" d="M740.13,655.66L739.48,656.03C737.16,657.37,734.64,656.19,733.85,653.4L726.85,628.66C726.662,627.975,726.582,627.264,726.612,626.554C726.643,625.845,726.784,625.144,727.03,624.477C727.276,623.81,727.624,623.186,728.062,622.627C728.5,622.067,729.022,621.579,729.61,621.18L730.26,620.81C732.58,619.47,735.1,620.65,735.89,623.44L742.89,648.18C743.078,648.865,743.158,649.576,743.128,650.286C743.097,650.995,742.956,651.696,742.71,652.363C742.464,653.03,742.116,653.654,741.678,654.213C741.24,654.773,740.718,655.261,740.13,655.66Z" fill="url(#Gradient-8)" fill-rule="evenodd"/>
                <path class="cls-29" d="M756.05,646.47L755.39,646.84C753.08,648.18,750.56,647,749.77,644.21L742.77,619.47C742.581,618.785,742.499,618.074,742.529,617.364C742.559,616.654,742.699,615.952,742.945,615.285C743.191,614.619,743.54,613.994,743.979,613.435C744.418,612.875,744.941,612.388,745.53,611.99L746.18,611.62C748.5,610.28,751.01,611.46,751.8,614.25L758.8,638.99C758.99,639.675,759.072,640.385,759.043,641.095C759.014,641.805,758.874,642.506,758.629,643.173C758.384,643.84,758.036,644.464,757.598,645.024C757.161,645.583,756.638,646.071,756.05,646.47Z" fill="url(#Gradient-9)" fill-rule="evenodd"/>
                <path class="cls-30" d="M772,637.28L771.35,637.65C769.04,638.99,766.52,637.81,765.73,635.02L758.73,610.28C758.541,609.595,758.459,608.884,758.489,608.174C758.519,607.464,758.659,606.762,758.905,606.095C759.151,605.429,759.5,604.804,759.939,604.245C760.378,603.685,760.901,603.198,761.49,602.8L762.14,602.43C764.45,601.09,766.97,602.27,767.76,605.06L774.76,629.8C774.949,630.485,775.031,631.196,775.001,631.906C774.971,632.616,774.831,633.318,774.585,633.985C774.339,634.651,773.99,635.276,773.551,635.835C773.112,636.395,772.589,636.882,772,637.28Z" fill="url(#Gradient-10)" fill-rule="evenodd"/>
            </g>
            <path class="cls-18" d="M808.6,534C809.009,534.229,809.409,534.476,809.796,534.74C810.184,535.004,810.56,535.286,810.922,535.583C811.285,535.88,811.635,536.194,811.97,536.522C812.305,536.85,812.625,537.193,812.93,537.55C813.233,537.914,813.508,538.301,813.75,538.708C813.993,539.115,814.202,539.54,814.378,539.98C814.553,540.42,814.694,540.873,814.798,541.336C814.902,541.798,814.97,542.267,815,542.74C815.017,543.216,814.999,543.693,814.947,544.167C814.894,544.64,814.807,545.109,814.686,545.57C814.565,546.031,814.411,546.483,814.224,546.921C814.037,547.359,813.819,547.783,813.57,548.19C813.327,548.598,813.068,548.995,812.792,549.382C812.516,549.768,812.225,550.143,811.919,550.506C811.612,550.868,811.291,551.218,810.956,551.554C810.621,551.89,810.272,552.213,809.91,552.52C809.547,552.822,809.177,553.116,808.801,553.401C808.425,553.686,808.042,553.963,807.653,554.231C807.264,554.499,806.869,554.758,806.469,555.008C806.068,555.258,805.662,555.499,805.25,555.73L800.42,558.59L790.75,564.3L752.1,587.14L674.63,632.51C661.723,640.083,648.797,647.623,635.85,655.13L626.14,660.76C624.51,661.69,622.95,662.64,621.14,663.56C620.26,664.02,619.35,664.38,618.46,664.79C617.57,665.2,616.63,665.49,615.7,665.79C614.773,666.085,613.836,666.351,612.893,666.588C611.949,666.825,610.998,667.032,610.041,667.21C609.084,667.388,608.122,667.536,607.157,667.655C606.191,667.773,605.221,667.862,604.25,667.92C603.275,667.987,602.297,668.02,601.319,668.017C600.341,668.014,599.364,667.976,598.389,667.904C597.414,667.831,596.441,667.723,595.474,667.581C594.507,667.438,593.545,667.261,592.59,667.05C592.104,666.942,591.62,666.823,591.14,666.691C590.659,666.56,590.182,666.416,589.709,666.261C589.235,666.106,588.766,665.939,588.301,665.76C587.836,665.582,587.376,665.391,586.92,665.19C585.03,664.28,583.48,663.33,581.85,662.41L572.12,656.81L552.66,645.63L513.74,623.26L436.07,578.26L397.24,555.73L377.83,544.46L358.46,533.12L281,487.7L242.35,464.86L232.69,459.15L227.86,456.3C227.05,455.84,226.25,455.3,225.46,454.78C225.07,454.51,224.72,454.17,224.35,453.87C224.258,453.796,224.169,453.719,224.081,453.64C223.993,453.561,223.908,453.479,223.824,453.396C223.741,453.312,223.659,453.227,223.58,453.139C223.501,453.051,223.424,452.962,223.35,452.87C223.017,452.524,222.71,452.154,222.431,451.763C222.153,451.372,221.904,450.96,221.687,450.532C221.469,450.104,221.284,449.66,221.132,449.205C220.98,448.749,220.863,448.283,220.78,447.81C220.713,447.338,220.681,446.861,220.687,446.383C220.692,445.906,220.734,445.43,220.812,444.959C220.89,444.488,221.003,444.024,221.152,443.571C221.301,443.117,221.484,442.676,221.7,442.25C223.42,438.83,226.51,436.42,229.7,434.57C226.54,436.51,223.53,439,221.95,442.38C221.754,442.794,221.589,443.223,221.459,443.662C221.328,444.101,221.23,444.549,221.168,445.003C221.105,445.457,221.077,445.915,221.084,446.373C221.091,446.831,221.133,447.288,221.21,447.74C221.3,448.185,221.424,448.623,221.579,449.05C221.734,449.477,221.921,449.892,222.138,450.291C222.354,450.69,222.6,451.073,222.873,451.436C223.146,451.799,223.446,452.141,223.77,452.46C223.846,452.545,223.924,452.628,224.003,452.71C224.083,452.791,224.165,452.871,224.248,452.948C224.332,453.026,224.417,453.102,224.504,453.175C224.591,453.249,224.68,453.32,224.77,453.39C225.13,453.67,225.47,453.98,225.85,454.24C226.62,454.73,227.39,455.24,228.22,455.67L233.11,458.43L242.88,463.95L282,486L360,530.41L379.5,541.51L399,552.69L437.92,575.06L515.76,619.79L554.6,642.32L574,653.58L583.71,659.21C585.32,660.14,586.98,661.14,588.46,661.86C588.862,662.036,589.269,662.202,589.679,662.359C590.09,662.515,590.504,662.662,590.921,662.799C591.338,662.936,591.759,663.063,592.182,663.18C592.606,663.297,593.032,663.403,593.46,663.5C594.332,663.695,595.21,663.86,596.093,663.992C596.977,664.125,597.865,664.226,598.755,664.296C599.646,664.365,600.539,664.403,601.432,664.409C602.325,664.414,603.219,664.388,604.11,664.33C605.005,664.28,605.899,664.202,606.79,664.096C607.68,663.991,608.567,663.857,609.449,663.697C610.332,663.537,611.209,663.349,612.08,663.134C612.95,662.92,613.814,662.678,614.67,662.41C615.53,662.14,616.35,661.81,617.2,661.51C618.05,661.21,618.84,660.82,619.62,660.41C621.16,659.64,622.81,658.65,624.43,657.73L634.16,652.14C647.12,644.66,660.12,637.233,673.16,629.86L751.16,585.45L790.26,563.39L800.03,557.88L804.92,555.12C805.326,554.904,805.728,554.679,806.125,554.445C806.522,554.212,806.913,553.97,807.299,553.72C807.686,553.469,808.067,553.211,808.442,552.944C808.817,552.677,809.187,552.403,809.55,552.12C809.908,551.831,810.254,551.527,810.587,551.21C810.92,550.893,811.24,550.562,811.547,550.219C811.853,549.876,812.145,549.52,812.423,549.153C812.701,548.786,812.963,548.408,813.21,548.02C813.461,547.634,813.683,547.231,813.874,546.813C814.066,546.395,814.227,545.964,814.355,545.522C814.484,545.081,814.58,544.63,814.643,544.175C814.705,543.719,814.734,543.26,814.73,542.8C814.715,542.338,814.662,541.878,814.573,541.425C814.484,540.971,814.359,540.525,814.199,540.092C814.039,539.658,813.844,539.239,813.616,538.836C813.388,538.434,813.129,538.051,812.84,537.69C812.545,537.323,812.234,536.968,811.908,536.629C811.582,536.289,811.241,535.964,810.885,535.655C810.53,535.346,810.161,535.053,809.78,534.776C809.398,534.5,809.005,534.241,808.6,534Z" fill="#fff"/>
        </g>
        <g transform="translate(-186.703,-323.25)">
            <path class="cls-31" d="M376.26,379.7L365.32,386.02L713.03,586.78L723.98,580.46L376.26,379.7Z" fill="url(#Gradient-11)" fill-rule="evenodd"/>
            <path class="cls-32" d="M408.92,360.93L397.98,367.25L745.7,568.01L756.64,561.69L408.92,360.93Z" fill="url(#Gradient-12)" fill-rule="evenodd"/>
        </g>
        <g id="trolley" class="cls-3" transform="translate(474.026,181.902) translate(-652.624,-502.941)" style="isolation: isolate; animation: 6s linear infinite both trolley_t;">
            <g class="cls-72" opacity="0.2">
                <path class="cls-73" d="M747.51,551.62C749.57,552.81,749.58,554.73,747.51,555.92L689.22,589.79C688.648,590.082,688.043,590.306,687.418,590.456C686.793,590.606,686.153,590.682,685.51,590.682C684.867,590.682,684.227,590.606,683.602,590.456C682.977,590.306,682.372,590.082,681.8,589.79L557.72,518.14C555.67,516.95,555.66,515.03,557.72,513.84L616,480C616.572,479.708,617.177,479.484,617.802,479.334C618.427,479.184,619.067,479.108,619.71,479.108C620.353,479.108,620.993,479.184,621.618,479.334C622.243,479.484,622.848,479.708,623.42,480Z" fill="url(#Gradient-13)"/>
            </g>
            <path class="cls-74" d="M747.55,542L689.26,575.87C688.688,576.162,688.083,576.386,687.458,576.536C686.833,576.686,686.193,576.762,685.55,576.762C684.907,576.762,684.267,576.686,683.642,576.536C683.017,576.386,682.412,576.162,681.84,575.87L557.73,504.19C557.518,504.095,557.319,503.972,557.139,503.825C556.959,503.678,556.799,503.508,556.663,503.319C556.528,503.13,556.418,502.924,556.336,502.707C556.254,502.489,556.202,502.261,556.18,502.03L556.18,508.39C556.201,508.622,556.253,508.851,556.334,509.07C556.415,509.288,556.525,509.495,556.661,509.685C556.796,509.875,556.957,510.046,557.137,510.194C557.318,510.341,557.517,510.465,557.73,510.56L681.84,582.21C682.412,582.502,683.017,582.726,683.642,582.876C684.267,583.026,684.907,583.102,685.55,583.102C686.193,583.102,686.833,583.026,687.458,582.876C688.083,582.726,688.688,582.502,689.26,582.21L747.55,548.33C747.759,548.236,747.954,548.115,748.132,547.97C748.309,547.825,748.466,547.657,748.599,547.471C748.732,547.285,748.839,547.082,748.919,546.867C748.999,546.652,749.049,546.428,749.07,546.2L749.07,539.83C749.051,540.061,749.002,540.289,748.923,540.507C748.845,540.725,748.737,540.931,748.605,541.121C748.472,541.311,748.314,541.483,748.136,541.631C747.958,541.779,747.761,541.903,747.55,542Z" fill="url(#Gradient-14)"/>
            <path class="cls-75" d="M747.52,537.67C749.58,538.85,749.59,540.78,747.52,541.97L689.23,575.84C688.658,576.132,688.053,576.356,687.428,576.506C686.803,576.656,686.163,576.732,685.52,576.732C684.877,576.732,684.237,576.656,683.612,576.506C682.987,576.356,682.382,576.132,681.81,575.84L557.73,504.19C555.68,503,555.66,501.08,557.73,499.89L616,466C616.572,465.708,617.177,465.484,617.802,465.334C618.427,465.184,619.067,465.108,619.71,465.108C620.353,465.108,620.993,465.184,621.618,465.334C622.243,465.484,622.848,465.708,623.42,466Z" fill="url(#Gradient-15)"/>
            <path class="cls-76" d="M585.85,454.26L642.8,421.16L739.06,476.73L682.1,509.83L585.85,454.26Z" fill="url(#Gradient-16)" stroke="none"/>
            <path class="cls-77" d="M658.32,480.99L695.14,502.25L682.1,509.83L646.45,489.25L658.32,480.99Z" fill="url(#Gradient-17)" stroke="none"/>
            <path class="cls-78" d="M658.32,480.99L695.14,502.25L739.06,476.73L642.8,421.16L642.71,421.21L658.32,480.99Z" fill="url(#Gradient-18)" stroke="none"/>
            <g id="ETH" transform="translate(614.239,417.211)">
                <g>
                    <path class="st0" d="M69.8,33.9L49,42L63.4,0Z" fill="url(#Gradient-19)"/>
                    <path class="st1" d="M37.5,22.9L49,42L63.4,0Z" fill="url(#Gradient-20)"/>
                    <path class="st2" d="M58.3,14.9L37.5,22.9L49,42L69.8,33.9Z" fill="url(#Gradient-21)" opacity="0.15"/>
                    <path class="st3" d="M36.5,25.7L48.1,44.8L42.9,59.8Z" fill="url(#Gradient-22)"/>
                    <path class="st4" d="M68.9,36.7L48.1,44.8L42.9,59.8Z" fill="url(#Gradient-23)"/>
                </g>
                <g>
                    <path class="st5" d="M43.8,31.1L30.6,59.8L3.7,2.9Z" fill="url(#Gradient-24)"/>
                    <path class="st6" d="M0,51.7L30.6,59.8L3.7,2.9Z" fill="url(#Gradient-25)"/>
                    <path class="st7" d="M13.2,23L0,51.7L30.6,59.8L43.8,31.1Z" fill="url(#Gradient-26)" opacity="0.15"/>
                    <path class="st8" d="M1.8,55.6L32.4,63.6L42,84Z" fill="url(#Gradient-27)"/>
                    <path class="st9" d="M45.6,34.9L32.4,63.6L42,84Z" fill="url(#Gradient-28)"/>
                </g>
                <g>
                    <path class="st10" d="M95.3,72.7L68.3,77.4L95.6,30.2Z" fill="url(#Gradient-29)"/>
                    <path class="st11" d="M58.9,51.6L68.3,77.4L95.6,30.2Z" fill="url(#Gradient-30)"/>
                    <path class="st12" d="M85.9,46.9L58.9,51.6L68.3,77.4L95.3,72.7Z" fill="url(#Gradient-31)" opacity="0.15"/>
                    <path class="st13" d="M57.1,54.8L66.5,80.5L56.6,97.5Z" fill="url(#Gradient-32)"/>
                    <path class="st14" d="M93.5,75.8L66.5,80.5L56.6,97.5Z" fill="url(#Gradient-33)"/>
                </g>
                <g>
                    <path class="st15" d="M52.7,63.7L31.8,81.4L31.5,26.9Z" fill="url(#Gradient-34)"/>
                    <path class="st16" d="M10.7,63.9L31.8,81.4L31.5,26.9Z" fill="url(#Gradient-35)"/>
                    <path class="st17" d="M31.6,46.2L10.7,63.9L31.8,81.4L52.7,63.7Z" fill="url(#Gradient-36)" opacity="0.15"/>
                    <path class="st18" d="M10.7,67.6L31.8,85.1L31.9,104.7Z" fill="url(#Gradient-37)"/>
                    <path class="st19" d="M52.7,67.4L31.8,85.1L31.9,104.7Z" fill="url(#Gradient-38)"/>
                </g>
            </g>
            <path class="cls-99" d="M682.1,509.83L664.75,555.24L602.89,519.52L585.85,454.26L682.1,509.83Z" fill="url(#Gradient-39)"/>
            <path class="cls-100" d="M682.1,509.83L739.06,476.73L721.71,522.14L664.75,555.24L682.1,509.83Z" fill="url(#Gradient-40)"/>
            <path class="cls-101" d="M671.66,537.15L673.85,531.42L593.95,485.29L596.1,493.53L671.66,537.15Z" fill="url(#Gradient-41)"/>
            <path class="cls-102" d="M728.41,504.61L730.77,498.43L673.92,531.25L671.56,537.43L728.41,504.61Z" fill="url(#Gradient-42)"/>
        </g>
        <g transform="translate(-186.703,-323.25)">
            <ellipse class="cls-143" rx="17.01" ry="9.82" fill="url(#Gradient-43)" transform="translate(-3.06,2.95) rotate(-0.31) translate(542.76,566.54)"/>
            <g>
                <path class="cls-144" d="M493,522.85C497.15,510.31,506.59,494.17,514.17,488.16C521.75,482.15,524,510.25,517,527.69C510,545.13,489.06,534.82,493,522.85Z" fill="url(#Gradient-44)"/>
                <path class="cls-145" d="M494.66,544.42C494.529,544.168,494.438,543.897,494.388,543.617C494.339,543.337,494.333,543.051,494.371,542.769C494.408,542.487,494.488,542.213,494.609,541.955C494.729,541.697,494.888,541.46,495.08,541.25C495.802,540.451,496.261,539.45,496.397,538.382C496.533,537.314,496.338,536.23,495.84,535.276C495.341,534.321,494.562,533.543,493.607,533.045C492.652,532.547,491.568,532.353,490.5,532.49C490.219,532.527,489.934,532.52,489.655,532.471C489.376,532.421,489.106,532.33,488.854,532.199C488.603,532.069,488.373,531.9,488.172,531.7C487.971,531.5,487.802,531.271,487.67,531.02L487.67,531.02C487.461,530.618,487.354,530.171,487.356,529.718C487.358,529.265,487.47,528.819,487.682,528.418C487.895,528.018,488.201,527.675,488.575,527.42C488.949,527.164,489.38,527.003,489.83,526.95C492.02,526.684,494.239,527.091,496.191,528.118C498.143,529.145,499.736,530.743,500.757,532.698C501.778,534.653,502.179,536.874,501.906,539.062C501.633,541.251,500.7,543.305,499.23,544.95C498.929,545.288,498.551,545.548,498.127,545.708C497.703,545.868,497.248,545.922,496.798,545.867C496.349,545.812,495.92,545.649,495.547,545.392C495.175,545.134,494.87,544.791,494.66,544.39Z" fill="url(#Gradient-45)"/>
            </g>
            <g>
                <path class="cls-146" d="M542.88,551.77L542.88,551.77C545.783,551.754,548.663,551.266,551.409,550.326C554.155,549.385,556.73,548.003,559.032,546.235C561.335,544.468,563.334,542.337,564.952,539.927C566.57,537.517,567.785,534.86,568.55,532.06L578.19,496.8L506.9,497.18L517,532.4C517.8,535.186,519.048,537.823,520.695,540.209C522.341,542.595,524.364,544.697,526.685,546.434C529.005,548.171,531.593,549.52,534.346,550.427C537.099,551.334,539.981,551.787,542.88,551.77Z" fill="url(#Gradient-46)"/>
                <ellipse class="cls-147" rx="35.67" ry="20.59" fill="url(#Gradient-47)" transform="translate(-5.36,5.91) rotate(-0.62) translate(542.49,496.99)"/>
            </g>
            <g transform="translate(570.074,516.855) rotate(80) translate(-563.842,-524.867)" style="animation: 6s linear infinite both a0_t;">
                <path class="cls-148" d="M600.73,509.33C590.85,518.1,574.6,527.33,565.03,528.74C555.46,530.15,567.58,504.74,582.45,493.15C597.32,481.56,610.17,501,600.73,509.33Z" fill="url(#Gradient-48)"/>
                <path class="cls-149" d="M610.13,489.84C610.118,490.123,610.062,490.403,609.965,490.669C609.868,490.936,609.731,491.186,609.559,491.411C609.386,491.636,609.18,491.833,608.948,491.996C608.716,492.158,608.46,492.285,608.19,492.37C607.163,492.697,606.261,493.332,605.606,494.188C604.951,495.044,604.574,496.08,604.526,497.157C604.478,498.233,604.761,499.299,605.338,500.21C605.914,501.121,606.756,501.833,607.75,502.25C608.012,502.36,608.256,502.509,608.474,502.693C608.691,502.876,608.879,503.091,609.032,503.331C609.185,503.571,609.3,503.833,609.375,504.107C609.449,504.382,609.481,504.666,609.47,504.95L609.47,504.95C609.449,505.402,609.319,505.841,609.09,506.232C608.862,506.622,608.542,506.95,608.158,507.19C607.775,507.429,607.339,507.571,606.888,507.604C606.437,507.637,605.985,507.56,605.57,507.38C603.534,506.517,601.811,505.052,600.63,503.182C599.45,501.311,598.87,499.125,598.967,496.916C599.063,494.707,599.833,492.58,601.172,490.82C602.511,489.06,604.356,487.752,606.46,487.07C606.889,486.929,607.346,486.895,607.792,486.969C608.237,487.043,608.658,487.224,609.019,487.496C609.379,487.768,609.669,488.123,609.862,488.531C610.056,488.94,610.148,489.389,610.13,489.84Z" fill="url(#Gradient-49)" transform="translate(600.274,492.696) rotate(-30) translate(-604.544,-497.271)"/>
            </g>
            <path class="cls-150" d="M502.55,467C502.546,483.54,512.507,498.454,527.787,504.786C543.068,511.117,560.658,507.619,572.354,495.924C584.049,484.228,587.547,466.638,581.216,451.357C574.884,436.077,559.97,426.116,543.43,426.12C538.054,426.094,532.726,427.133,527.755,429.178C522.783,431.223,518.266,434.233,514.464,438.034C510.663,441.836,507.653,446.353,505.608,451.325C503.563,456.296,502.524,461.624,502.55,467Z" fill="url(#Gradient-50)"/>
            <g>
                <path class="cls-151" d="M559,485.65C557.1,477.71,560.4,466.65,566.37,461.04C570.23,457.38,574.26,456.87,577.14,459.12L577.14,459.12L577.14,459.12C577.23,459.191,577.319,459.264,577.406,459.34C577.493,459.415,577.579,459.492,577.662,459.572C577.746,459.651,577.827,459.732,577.907,459.815C577.987,459.898,578.064,459.983,578.14,460.07L581.98,463.74L580.98,467.48C581.116,469.167,581.108,470.863,580.955,472.548C580.802,474.234,580.506,475.903,580.069,477.538C579.632,479.174,579.056,480.768,578.347,482.305C577.638,483.842,576.8,485.316,575.84,486.71L574.5,491.71L568.06,492.79C567.973,492.815,567.886,492.838,567.799,492.859C567.711,492.88,567.623,492.9,567.534,492.917C567.446,492.935,567.357,492.95,567.268,492.964C567.179,492.978,567.09,492.99,567,493L567,493C563.29,493.34,560.22,490.75,559,485.65Z" fill="url(#Gradient-51)"/>
                <ellipse class="cls-152" rx="14.97" ry="8.64" fill="url(#Gradient-52)" transform="translate(-47.85,890.17) rotate(-73.13) translate(576.16,477.35)"/>
                <ellipse class="cls-153" rx="9.25" ry="5.34" fill="url(#Gradient-53)" transform="translate(-47.27,891.8) rotate(-73.13) translate(577.55,477.77)"/>
            </g>
            <path class="cls-18" d="M574.41,440.32C574.07,439.93,573.73,439.54,573.41,439.15C572.463,439.155,571.517,439.211,570.576,439.318C569.635,439.425,568.701,439.583,567.777,439.791C566.852,439.998,565.94,440.255,565.044,440.561C564.148,440.866,563.268,441.22,562.41,441.62C552.06,446.37,548.33,455.44,544.53,466.81C542.16,473.87,533.34,476.73,526.23,475.81C519.29,474.92,511.62,470.27,510.91,459.88C509.91,445.28,516.44,434.82,530.82,428.12C529.907,428.417,529.006,428.746,528.116,429.107C527.227,429.467,526.351,429.86,525.49,430.283C524.628,430.706,523.782,431.16,522.953,431.643C522.124,432.126,521.313,432.639,520.52,433.18C512.52,439.82,509.02,448.69,509.79,459.96C510.55,471.02,518.71,475.96,526.09,476.96C526.349,476.992,526.608,477.021,526.867,477.045C527.127,477.069,527.387,477.09,527.647,477.107C527.907,477.123,528.168,477.136,528.428,477.145C528.689,477.154,528.949,477.159,529.21,477.16C537.79,477.16,543.84,472.42,545.59,467.16C549.3,456.06,552.94,447.16,562.88,442.63C563.778,442.215,564.7,441.853,565.64,441.546C566.581,441.239,567.538,440.987,568.508,440.793C569.478,440.599,570.459,440.462,571.445,440.383C572.431,440.304,573.421,440.283,574.41,440.32Z" fill="#fff"/>
            <path class="cls-154" d="M527.12,534.46C527.199,534.145,527.211,533.816,527.156,533.496C527.101,533.175,526.98,532.87,526.8,532.599C526.62,532.328,526.386,532.097,526.112,531.922C525.839,531.746,525.531,531.63,525.21,531.58C519.73,530.76,506.61,527.27,497.37,512.36C485.42,493.07,469.9,503.97,465.28,517.6C463.82,521.3,466.86,523.69,469.69,518.76C472.52,513.83,477.1,505.24,485.89,506.91C494.47,508.54,496.79,533.16,524.57,536.22C524.851,536.251,525.134,536.231,525.408,536.161C525.681,536.092,525.94,535.975,526.172,535.814C526.405,535.654,526.606,535.454,526.768,535.222C526.93,534.991,527.049,534.733,527.12,534.46Z" fill="url(#Gradient-54)" transform="translate(523.372,533.327) translate(-523.372,-533.327)" style="animation: 6s linear infinite both a1_t;"/>
        </g>
    </g>
</svg>
