<svg xmlns="http://www.w3.org/2000/svg" width="15" height="17" viewBox="0 0 15 17">
    <g fill="none" fill-rule="evenodd">
        <g fill="#41DEA2" fill-rule="nonzero">
            <g>
                <g>
                    <g>
                        <path d="M13.862 11.351l.947.583c.118.073.191.205.191.347 0 .143-.073.274-.191.347l-6.904 4.256c-.25.155-.56.155-.81 0L.19 12.628C.073 12.555 0 12.424 0 12.281c0-.142.073-.274.191-.347l.947-.583L7.5 15.274l6.362-3.923zm0-3.801l.947.583c.118.073.191.205.191.347s-.073.274-.191.347L7.5 13.333.191 8.827C.073 8.754 0 8.622 0 8.48s.073-.274.191-.347l.947-.583L7.5 11.473l6.362-3.923zM7.905.116l6.904 4.256c.118.073.191.204.191.347 0 .142-.073.274-.191.347L7.5 9.572.191 5.066C.073 4.993 0 4.86 0 4.719c0-.143.073-.274.191-.347L7.095.116c.25-.155.56-.155.81 0zM7.5 1.752L2.688 4.719 7.5 7.685l4.812-2.966L7.5 1.752z" transform="translate(-1058 -24) translate(760 17) translate(298 6) translate(0 1)"/>
                    </g>
                </g>
            </g>
        </g>
    </g>
</svg>
