<svg xmlns="http://www.w3.org/2000/svg" width="16" height="16" viewBox="0 0 16 16">
    <g fill="none" fill-rule="evenodd">
        <g fill="#3DCF97" fill-rule="nonzero">
            <g>
                <path d="M15.61 13.724l-3.827-3.829c-.045-.044-.094-.078-.141-.115.646-.992 1.024-2.174 1.024-3.447C12.666 2.835 9.832 0 6.333 0 2.836 0 0 2.835 0 6.333s2.836 6.333 6.333 6.333c1.273 0 2.456-.379 3.45-1.026.036.048.07.096.113.14l3.828 3.83c.262.26.602.39.943.39.341 0 .682-.13.943-.39.52-.521.52-1.365 0-1.886m-9.277-3.058C3.944 10.666 2 8.722 2 6.333 2 3.944 3.944 2 6.333 2c2.389 0 4.333 1.944 4.333 4.333 0 2.389-1.944 4.333-4.333 4.333" transform="translate(-373 -25) translate(373 25)"/>
            </g>
        </g>
    </g>
</svg>
