<svg xmlns="http://www.w3.org/2000/svg" width="14" height="14" viewBox="0 0 14 14">
    <g fill="none" fill-rule="evenodd">
        <g fill="#41DEA2" fill-rule="nonzero">
            <g>
                <g>
                    <g>
                        <path d="M.778 4.118h10.111l-1.245.989c-.343.272-.413.789-.155 1.152.147.208.377.33.622.33.168 0 .332-.058.467-.165l3.111-2.47c.193-.156.306-.398.306-.655s-.113-.499-.306-.655L10.687.174c-.34-.28-.829-.215-1.093.144-.264.36-.203.877.136 1.157l1.221.996H.778c-.43 0-.778.37-.778.824 0 .455.348.823.778.823zm12.444 5.765H3.111l1.245-.989c.343-.272.413-.789.155-1.152-.258-.364-.745-.438-1.089-.165l-3.111 2.47c-.193.156-.306.398-.306.655s.113.499.306.655l3.002 2.47c.136.112.303.172.475.173.24 0 .467-.12.614-.321.263-.358.204-.873-.132-1.153l-1.221-.996h10.173c.43 0 .778-.37.778-.824 0-.455-.348-.823-.778-.823z" transform="translate(-968 -25) translate(760 17) translate(208 6) translate(0 2)"/>
                    </g>
                </g>
            </g>
        </g>
    </g>
</svg>
