<svg xmlns="http://www.w3.org/2000/svg" width="7" height="13" viewBox="0 0 7 13">
    <g fill="none" fill-rule="evenodd">
        <g fill="#253165" fill-rule="nonzero">
            <g>
                <g>
                    <g>
                        <path d="M.68 3.604h8.848l-1.09.864c-.3.239-.36.69-.135 1.009.128.181.33.288.544.288.148 0 .29-.05.409-.144l2.722-2.162c.169-.136.268-.348.268-.572 0-.225-.1-.437-.268-.573L9.35.152c-.297-.245-.725-.188-.956.126-.231.315-.178.768.119 1.013l1.068.871H.68c-.375 0-.68.323-.68.721 0 .398.305.72.68.72z" transform="translate(-1072 -360) translate(883 134) translate(175 215) rotate(90 4.748 15.883)"/>
                    </g>
                </g>
            </g>
        </g>
    </g>
</svg>
