<svg xmlns="http://www.w3.org/2000/svg" xmlns:xlink="http://www.w3.org/1999/xlink" width="16" height="11" viewBox="0 0 16 11">
    <defs>
        <path id="ro5ghbhrma" d="M8.339.23c.304-.307.796-.307 1.1 0l4.667 4.714c.025.026.048.053.07.082l.027.038c.01.016.021.033.03.051.009.014.016.029.023.044.009.018.017.037.024.056.006.013.01.026.014.039.007.019.012.039.017.059l.012.06c.007.041.01.084.01.127l-.005-.088c.003.02.004.04.005.061v.054c0 .02-.002.041-.005.062l-.005.038-.012.06c-.005.02-.01.04-.017.06l-.013.038-.025.057-.022.043c-.01.018-.02.035-.032.051-.027.042-.06.082-.096.12l.07-.082-.005.006-.065.076-4.667 4.714c-.304.307-.796.307-1.1 0-.304-.307-.304-.804 0-1.111l3.338-3.374H1.111c-.394 0-.72-.295-.77-.678L.332 5.5c0-.434.349-.786.778-.786h10.567l-3.34-3.373c-.275-.279-.3-.715-.074-1.023z"/>
    </defs>
    <g fill="none" fill-rule="evenodd">
        <g>
            <g>
                <g>
                    <g transform="translate(-1159 -552) translate(882 134) translate(41 400) translate(236.667 18)">
                        <use fill="#FFF" fill-rule="nonzero" xlink:href="#ro5ghbhrma"/>
                    </g>
                </g>
            </g>
        </g>
    </g>
</svg>
