<svg xmlns="http://www.w3.org/2000/svg" width="14" height="7" viewBox="0 0 14 7">
    <g fill="none" fill-rule="evenodd">
        <g fill="#212D63" fill-rule="nonzero">
            <g>
                <g>
                    <g>
                        <g>
                            <g>
                                <path d="M.778 4.375h10.115l-1.245 1.05c-.344.29-.413.839-.156 1.225.147.22.378.35.623.35.168 0 .332-.061.467-.175L13.694 4.2c.193-.165.306-.422.306-.695 0-.273-.113-.53-.306-.696L10.69.185c-.34-.297-.83-.229-1.094.153-.264.382-.203.932.137 1.23l1.221 1.058H.778c-.43 0-.778.391-.778.875 0 .483.348.874.778.874z" transform="translate(-1050 -890) translate(883 134) translate(0 722) translate(35 25) translate(87 1) translate(45 8)"/>
                            </g>
                        </g>
                    </g>
                </g>
            </g>
        </g>
    </g>
</svg>
