<svg xmlns="http://www.w3.org/2000/svg" width="22" height="19" viewBox="0 0 22 19">
    <g fill="none" fill-rule="evenodd" opacity=".796">
        <g fill="#FFF" fill-rule="nonzero">
            <g>
                <g>
                    <g>
                        <path d="M.86 8.37L20.46.82c.41-.16.84.2.75.64l-3.52 16.9c-.038.187-.169.342-.347.41-.178.07-.379.043-.533-.07l-4.8-3.48c-.293-.21-.69-.197-.97.03l-2.66 2.17c-.145.123-.342.164-.523.11-.182-.055-.324-.198-.377-.38l-1.84-5.94L.86 9.43C.633 9.353.48 9.14.48 8.9c0-.24.153-.453.38-.53zm5.92 2.95l1 3.54c.08.25.44.22.48-.03l.26-1.95c.05-.36.23-.7.5-.95l7.7-7.16c.14-.13-.03-.36-.2-.25l-9.33 5.74c-.359.221-.527.655-.41 1.06z" transform="translate(-1323 -891) translate(0 868) translate(80 23) translate(1243)"/>
                    </g>
                </g>
            </g>
        </g>
    </g>
</svg>
