<svg xmlns="http://www.w3.org/2000/svg" width="18" height="15" viewBox="0 0 18 15">
    <g fill="none" fill-rule="evenodd">
        <g fill="#EBEDF3" fill-rule="nonzero" stroke="#212D63">
            <g>
                <g>
                    <g>
                        <path d="M23.675 13.149c.693-.403 1.188-1.058 1.435-1.814-.643.403-1.336.655-2.079.806-.594-.655-1.435-1.058-2.326-1.058-1.782 0-3.267 1.461-3.267 3.325 0 .252.05.504.099.756-2.723-.151-5.098-1.461-6.732-3.476-.297.504-.445 1.058-.445 1.662 0 1.16.594 2.167 1.435 2.771-.544 0-1.04-.15-1.485-.403v.05c0 1.613 1.139 2.923 2.624 3.225-.297.05-.545.1-.842.1-.198 0-.396 0-.594-.05.396 1.31 1.634 2.267 3.02 2.318-1.09.906-2.525 1.41-4.06 1.41-.247 0-.544 0-.791-.05 1.485.907 3.217 1.46 5.048 1.46 5.99 0 9.257-5.037 9.257-9.42v-.403c.594-.504 1.138-1.058 1.584-1.713-.594.252-1.188.453-1.881.504z" transform="translate(-1212.000000, -1009.000000) translate(883.000000, 974.000000) translate(35.000000, 25.000000) translate(285.000000, 0.000000)"/>
                    </g>
                </g>
            </g>
        </g>
    </g>
</svg>
