<svg xmlns="http://www.w3.org/2000/svg" width="22" height="18" viewBox="0 0 22 18">
    <g fill="none" fill-rule="evenodd" opacity=".796">
        <g fill="#FFF" fill-rule="nonzero">
            <g>
                <g>
                    <g>
                        <path d="M22 2.146c-.822.346-1.645.623-2.604.692.96-.553 1.644-1.453 1.987-2.492-.89.554-1.85.9-2.878 1.108C17.682.554 16.517 0 15.283 0c-2.467 0-4.523 2.008-4.523 4.57 0 .345.069.692.137 1.038C7.127 5.4 3.838 3.6 1.577.83 1.164 1.523.96 2.285.96 3.115c0 1.593.822 2.977 1.987 3.808-.754 0-1.44-.208-2.056-.554v.07c0 2.215 1.576 4.015 3.632 4.43-.41.07-.754.139-1.165.139-.274 0-.548 0-.822-.07.548 1.8 2.262 3.116 4.18 3.185-1.507 1.246-3.495 1.939-5.62 1.939-.342 0-.753 0-1.096-.07C2.056 17.238 4.455 18 6.99 18c8.293 0 12.817-6.923 12.817-12.946V4.5c.822-.692 1.576-1.454 2.193-2.354z" transform="translate(-1271 -892) translate(0 868) translate(80 23) translate(1191 1)"/>
                    </g>
                </g>
            </g>
        </g>
    </g>
</svg>
