<svg xmlns="http://www.w3.org/2000/svg" xmlns:xlink="http://www.w3.org/1999/xlink" width="22" height="24" viewBox="0 0 22 24">
    <defs>
        <path id="js0zhbu9ga" d="M19 15c.552 0 1 .448 1 1v3c0 1.657-1.343 3-3 3H3c-1.657 0-3-1.343-3-3v-3c0-.552.448-1 1-1s1 .448 1 1v3c0 .552.448 1 1 1h14c.552 0 1-.448 1-1v-3c0-.552.448-1 1-1zM10 0h.02c.023 0 .046.002.07.004l.059.007.052.01c.022.004.043.009.065.015l.046.014.06.021.051.023.061.03.037.022c.025.016.05.032.074.05.04.03.077.061.112.097l-.09-.08.008.007.082.073 4 4c.39.39.39 1.024 0 1.414-.39.39-1.024.39-1.414 0L11 3.414V15c0 .513-.386.936-.883.993L10 16c-.552 0-1-.448-1-1V3.414L6.707 5.707c-.36.36-.928.388-1.32.083l-.094-.083c-.39-.39-.39-1.024 0-1.414l4-4L9.375.22l.008-.007.022-.017c.024-.018.049-.034.074-.05l.037-.021c.02-.011.04-.022.06-.031L9.63.07l.06-.021.045-.014.065-.016.053-.009C9.9.004 9.949 0 10 0l-.09.004L9.983 0z"/>
    </defs>
    <g fill="none" fill-rule="evenodd">
        <g>
            <g>
                <g>
                    <g>
                        <g>
                            <g transform="translate(-714 -3495) translate(226 3299) translate(0 181) translate(384) translate(88) translate(17 16)">
                                <use fill="#3DCF97" fill-rule="nonzero" stroke="#3DCF97" stroke-width=".2" xlink:href="#js0zhbu9ga"/>
                            </g>
                        </g>
                    </g>
                </g>
            </g>
        </g>
    </g>
</svg>
