<svg width="16" height="19" viewBox="0 0 16 19" fill="none" xmlns="http://www.w3.org/2000/svg"><path d="M1.35922 0.117676H6.91243C10.5885 0.117676 12.5439 2.35982 12.5439 5.64482C12.5439 6.06196 12.4396 6.68767 12.3614 7.07875C12.3353 7.23518 12.3092 7.33946 12.3092 7.44375C12.3092 7.65232 12.3874 7.78268 12.6742 7.9391C14.421 8.92982 15.2031 10.5462 15.2031 12.8405C15.2031 16.0473 13.2217 18.3677 9.15457 18.3677H1.35922C0.942073 18.3677 0.785645 18.1852 0.785645 17.768V0.717319C0.785645 0.300176 0.942073 0.117676 1.35922 0.117676ZM5.58279 7.28732H6.91243C7.59029 7.28732 8.11172 6.87018 8.11172 6.06196C8.11172 5.27982 7.59029 4.8366 6.91243 4.8366H5.58279C5.16564 4.8366 5.00922 5.0191 5.00922 5.43625V6.68768C5.00922 7.10482 5.16564 7.28732 5.58279 7.28732ZM5.58279 13.6487H9.07636C10.0931 13.6487 10.6667 13.2837 10.6667 12.4234C10.6667 11.5891 10.0931 11.198 9.07636 11.198H5.58279C5.16564 11.198 5.00922 11.3805 5.00922 11.7977V13.0491C5.00922 13.4662 5.16564 13.6487 5.58279 13.6487Z" fill="#706EFF"></path></svg>